<svg width="391" height="249" viewBox="0 0 391 249" fill="none" xmlns="http://www.w3.org/2000/svg">
<path d="M1.096 22.3592C0.4932 22.3592 0 22.8426 0 23.4334V214.413C0 214.671 0.09864 214.929 0.274 215.122L29.4276 247.618C29.6358 247.855 29.9317 247.984 30.2496 247.984H320.646C320.985 247.984 321.303 247.833 321.511 247.575L367.576 189.824H386.965C387.567 189.824 388.061 189.34 388.061 188.75V76.5551C388.061 75.9642 387.567 75.4808 386.965 75.4808H368.135V23.4334C368.135 22.8426 367.642 22.3592 367.039 22.3592H306.606C306.31 22.3592 306.025 22.4774 305.828 22.6815L293.125 35.4006H273.551L262.689 22.7459C262.481 22.4988 262.174 22.3592 261.845 22.3592H1.096Z" fill="white" fill-opacity="0.1"/>
<path d="M203.267 18.9292V16.3327H200.616C201.14 16.6937 201.631 17.0926 202.084 17.5359C202.517 17.9666 202.918 18.4352 203.267 18.9292Z" fill="white"/>
<path d="M185.797 30.8799V33.4447H188.403C187.905 33.1027 187.44 32.7227 187.006 32.3048C186.56 31.8678 186.159 31.3928 185.797 30.8862V30.8799Z" fill="white"/>
<path d="M194.526 18.6379V16.3327H185.797V20.6771L188.791 22.14C189.832 20.0691 192.004 18.6379 194.519 18.6379H194.526Z" fill="white"/>
<path d="M220.562 16.1051C220.562 16.2318 220.665 16.3331 220.795 16.3331H223.562V33.4447H220.795C220.665 33.4447 220.562 33.5461 220.562 33.6727C220.562 33.7994 220.665 33.9007 220.795 33.9007H224.027V15.8771H220.795C220.665 15.8771 220.562 15.9785 220.562 16.1051Z" fill="white"/>
<path d="M167.493 33.4447H164.726V16.3331H167.493C167.623 16.3331 167.726 16.2318 167.726 16.1051C167.726 15.9785 167.623 15.8771 167.493 15.8771H164.261V24.8573H161.138C161.125 24.224 160.595 23.711 159.948 23.711C159.302 23.711 158.752 24.2366 158.752 24.8826C158.752 25.5286 159.289 26.0542 159.948 26.0542C160.537 26.0542 161.021 25.6362 161.118 25.0852H164.261V33.9007H167.493C167.623 33.9007 167.726 33.7994 167.726 33.6727C167.726 33.5461 167.623 33.4447 167.493 33.4447Z" fill="white"/>
<path d="M208.077 26.0668C207.664 25.9212 207.36 25.5602 207.301 25.1169C207.301 25.0662 207.289 25.0219 207.289 24.9712C207.289 24.8636 207.308 24.7623 207.334 24.6609C207.437 24.2873 207.722 23.996 208.09 23.8693C208.161 23.844 208.239 23.825 208.317 23.8123C207.754 16.8397 201.793 11.3364 194.532 11.3364C187.271 11.3364 181.31 16.8397 180.748 23.806C180.825 23.8123 180.903 23.8313 180.974 23.8503C181.355 23.9706 181.653 24.2683 181.756 24.6483C181.782 24.7496 181.802 24.8509 181.802 24.9586C181.802 25.0092 181.795 25.0599 181.789 25.1042C181.73 25.5539 181.414 25.9212 180.98 26.0605C180.909 26.0858 180.832 26.0985 180.754 26.1112C181.394 33.0014 187.323 38.4224 194.526 38.4224C201.728 38.4224 207.657 33.0014 208.297 26.1048C208.22 26.0922 208.142 26.0732 208.071 26.0478L208.077 26.0668ZM184.97 20.2722L185.338 20.4495V15.8771H194.526V14.4522C196.026 14.4522 197.448 14.7562 198.748 15.3008C199.142 15.4655 199.517 15.6618 199.886 15.8708H203.739V19.6326C204.625 21.1145 205.142 22.8244 205.187 24.6546H199.446L194.539 19.8479L189.573 24.7116L185.804 24.6863H185.338L183.877 24.6736C183.922 23.1157 184.304 21.5831 184.97 20.2659V20.2722ZM195.793 24.8952C195.793 25.5792 195.23 26.1302 194.532 26.1302C193.834 26.1302 193.271 25.5792 193.271 24.8952C193.271 24.2113 193.834 23.6603 194.532 23.6603C195.23 23.6603 195.793 24.2113 195.793 24.8952ZM196.918 38.0045L196.401 35.18C197.661 34.9583 198.845 34.515 199.918 33.9007H194.526V35.3446C192.554 35.3446 190.705 34.819 189.121 33.9007H185.332V30.1643C185.073 29.7336 184.834 29.2903 184.64 28.8217L185.332 28.5494V25.1106H185.797V28.3657L188.603 27.2638C188.325 26.5988 188.164 25.8705 188.138 25.1169H189.618L194.526 29.9236L199.433 25.1169H200.894C200.836 26.7698 200.131 28.258 199.013 29.3473C198.108 30.2213 196.944 30.8356 195.638 31.0572C195.276 31.1205 194.901 31.1585 194.513 31.1585V33.4447H200.629C201.127 33.1027 201.599 32.7228 202.032 32.3048L203.196 33.4447H203.254V25.1169H203.72V33.9007H203.661L204.108 34.3377C202.187 36.2122 199.692 37.5168 196.911 38.0045H196.918Z" fill="white"/>
<path d="M229.025 23.711C228.372 23.711 227.848 24.2239 227.836 24.8572H224.486C224.422 24.8572 224.37 24.9079 224.37 24.9712C224.37 25.0346 224.422 25.0852 224.486 25.0852H227.855C227.952 25.6362 228.437 26.0542 229.025 26.0542C229.685 26.0542 230.221 25.5285 230.221 24.8826C230.221 24.2366 229.685 23.711 229.025 23.711Z" fill="white"/>
<path d="M194.209 24.8891C194.209 25.0601 194.351 25.2057 194.532 25.2057C194.713 25.2057 194.855 25.0664 194.855 24.8891C194.855 24.7118 194.713 24.5724 194.532 24.5724C194.351 24.5724 194.209 24.7118 194.209 24.8891Z" fill="white"/>
<path d="M194.119 0C182.358 0 172.201 7.80853 169.427 18.9862C169.369 19.2332 169.517 19.4738 169.77 19.5372C170.022 19.6005 170.267 19.4485 170.332 19.2015C173.009 8.43549 182.791 0.911945 194.119 0.911945C207.541 0.911945 218.468 11.545 218.59 24.6605H212.422C212.345 18.5682 209.073 13.2169 204.179 10.1327L206.862 6.15563L204.884 5.0347L202.744 9.31577C201.851 8.8598 200.914 8.47349 199.944 8.17584L201.489 3.65411L199.284 3.07148L198.347 7.75786C197.371 7.54888 196.369 7.41588 195.341 7.37155L195.638 2.59651H193.349L193.685 7.37155C192.657 7.41588 191.655 7.54888 190.685 7.75786L189.709 3.05882L187.504 3.64145L189.095 8.18217C188.125 8.48615 187.194 8.87246 186.302 9.3221L184.11 5.0157L182.132 6.13663L184.879 10.1327C184.026 10.671 183.224 11.2663 182.481 11.9313L179.216 8.31516L177.599 9.8984L181.317 13.0712C180.638 13.7995 180.024 14.5848 179.474 15.4207L175.356 12.7482L174.211 14.6861L178.647 16.814C178.181 17.6879 177.793 18.5999 177.483 19.5435L172.802 18.0109L172.207 20.1704L177.05 21.1014C176.791 22.254 176.649 23.4446 176.629 24.6668H172.239C172.084 23.5206 171.095 22.634 169.886 22.634C168.567 22.634 167.5 23.6789 167.5 24.9708C167.5 26.2627 168.567 27.3077 169.886 27.3077C171.205 27.3077 172.175 26.3387 172.259 25.1165H176.629C176.642 26.3071 176.778 27.466 177.024 28.5806L172.188 29.5432L172.776 31.7027L177.444 30.1385C177.748 31.0885 178.136 32.0004 178.595 32.8743L174.173 35.0339L175.317 36.9718L179.41 34.2739C179.953 35.1099 180.56 35.9015 181.239 36.6298L177.548 39.8343L179.164 41.4175L182.403 37.776C183.147 38.4473 183.942 39.049 184.795 39.5936L182.08 43.615L184.058 44.736L186.218 40.4106C187.104 40.8665 188.041 41.2592 189.004 41.5632L187.446 46.1165L189.657 46.6992L190.595 41.9938C191.571 42.2091 192.567 42.3484 193.595 42.3991L193.297 47.1805H195.586L195.25 42.4054C196.278 42.3674 197.28 42.2408 198.256 42.0381L199.226 46.7182L201.431 46.1355L199.853 41.6265C200.83 41.3288 201.761 40.9489 202.659 40.4992L204.832 44.7676L206.81 43.6467L204.095 39.6949C204.955 39.163 205.763 38.5613 206.513 37.8964L209.733 41.4618L211.349 39.8786L207.69 36.7564C208.375 36.0282 208.996 35.2429 209.545 34.4069L213.593 37.0288L214.737 35.0909L210.386 33.0073C210.851 32.1334 211.252 31.2151 211.562 30.2652L216.153 31.7661L216.748 29.6002L212.002 28.6883C212.267 27.5357 212.409 26.3324 212.429 25.1038H218.597C218.474 38.2194 207.541 48.8524 194.125 48.8524C182.817 48.8524 173.041 41.3478 170.351 30.6071C170.293 30.3602 170.041 30.2145 169.789 30.2715C169.537 30.3285 169.388 30.5755 169.446 30.8225C172.239 41.9748 182.384 49.7643 194.125 49.7643C208.136 49.7643 219.534 38.5993 219.534 24.8758C219.534 11.1523 208.129 0 194.119 0ZM211.084 28.5236L210.683 29.9802C210.386 30.8985 210.004 31.7724 209.552 32.6147L208.84 33.818C208.252 34.7236 207.573 35.5722 206.817 36.3511L206.215 36.9401C203.17 39.7773 199.052 41.5188 194.519 41.5188C185.222 41.5188 177.67 34.1979 177.548 25.1165H178.795H178.983H179.435C179.435 25.0658 179.423 25.0215 179.423 24.9708C179.423 24.8632 179.442 24.7618 179.468 24.6605H177.548C177.67 15.5791 185.222 8.25817 194.519 8.25817C203.817 8.25817 211.368 15.5791 211.491 24.6605H209.623C209.649 24.7618 209.668 24.8632 209.668 24.9708C209.668 25.0215 209.662 25.0721 209.655 25.1165H211.491C211.478 26.2881 211.336 27.4217 211.084 28.5236Z" fill="white"/>
<path d="M185.448 37.3143C185.37 37.422 185.402 37.5613 185.506 37.6309C185.545 37.6626 185.59 37.6689 185.635 37.6689C185.706 37.6689 185.777 37.6373 185.823 37.5739C185.9 37.4663 185.868 37.327 185.765 37.2573C185.661 37.1876 185.512 37.213 185.441 37.3143H185.448Z" fill="white"/>
<path d="M189.043 38.9353C188.926 38.891 188.791 38.9543 188.745 39.0746C188.7 39.1886 188.758 39.3216 188.881 39.366C188.907 39.3723 188.939 39.3786 188.965 39.3786C189.056 39.3786 189.146 39.3216 189.185 39.233C189.23 39.1126 189.166 38.9796 189.043 38.9353Z" fill="white"/>
<path d="M182.674 34.8443C182.577 34.9266 182.564 35.0722 182.655 35.1609C182.7 35.2116 182.765 35.2369 182.829 35.2369C182.888 35.2369 182.939 35.2179 182.985 35.1799C183.082 35.0976 183.094 34.9519 183.01 34.8633C182.92 34.7683 182.778 34.7556 182.681 34.8443H182.674Z" fill="white"/>
<path d="M179.299 28.3403C179.177 28.3656 179.093 28.4923 179.125 28.6126C179.151 28.7202 179.248 28.7836 179.351 28.7836C179.371 28.7836 179.39 28.7836 179.409 28.7836C179.532 28.7519 179.61 28.6316 179.577 28.5049C179.552 28.3846 179.422 28.3086 179.299 28.3403Z" fill="white"/>
<path d="M179.558 21.317C179.584 21.1967 179.513 21.07 179.383 21.0384C179.261 21.013 179.131 21.0827 179.105 21.2094C179.073 21.3297 179.151 21.4563 179.28 21.4817C179.299 21.4817 179.312 21.488 179.332 21.488C179.442 21.488 179.532 21.412 179.558 21.317Z" fill="white"/>
<path d="M192.638 39.7967C192.509 39.7841 192.399 39.8727 192.379 39.9994C192.366 40.1197 192.457 40.2337 192.586 40.2527H192.612C192.729 40.2527 192.825 40.164 192.845 40.05C192.858 39.9234 192.767 39.8157 192.638 39.7967Z" fill="white"/>
<path d="M180.58 31.792C180.463 31.849 180.424 31.9883 180.483 32.1023C180.521 32.1783 180.605 32.2226 180.69 32.2226C180.728 32.2226 180.767 32.2163 180.799 32.1973C180.916 32.1403 180.955 32.001 180.896 31.8933C180.838 31.7793 180.696 31.7413 180.586 31.7983L180.58 31.792Z" fill="white"/>
<path d="M205.95 34.8381C205.866 34.933 205.873 35.0724 205.976 35.161C206.015 35.199 206.073 35.218 206.131 35.218C206.189 35.218 206.254 35.1927 206.306 35.142C206.39 35.0534 206.377 34.9077 206.286 34.8254C206.189 34.7367 206.047 34.7494 205.957 34.8444L205.95 34.8381Z" fill="white"/>
<path d="M208.368 31.7665C208.252 31.7095 208.11 31.7475 208.051 31.8615C207.993 31.9692 208.038 32.1149 208.148 32.1655C208.187 32.1845 208.219 32.1909 208.258 32.1909C208.342 32.1909 208.426 32.1465 208.465 32.0705C208.523 31.9629 208.478 31.8235 208.368 31.7665Z" fill="white"/>
<path d="M209.364 28.4735C209.332 28.5938 209.409 28.7142 209.538 28.7458C209.558 28.7458 209.577 28.7458 209.597 28.7458C209.7 28.7458 209.791 28.6762 209.823 28.5748C209.855 28.4545 209.778 28.3279 209.648 28.3025C209.526 28.2709 209.403 28.3469 209.37 28.4735H209.364Z" fill="white"/>
<path d="M199.924 38.9282C199.801 38.9725 199.743 39.1055 199.788 39.2195C199.821 39.3081 199.911 39.3715 200.002 39.3715C200.028 39.3715 200.06 39.3715 200.086 39.3525C200.209 39.3145 200.267 39.1815 200.222 39.0612C200.176 38.9408 200.04 38.8838 199.924 38.9282Z" fill="white"/>
<path d="M196.329 39.7897C196.2 39.8087 196.109 39.9227 196.122 40.043C196.135 40.157 196.239 40.2457 196.355 40.2457H196.381C196.504 40.2267 196.601 40.1127 196.581 39.9924C196.569 39.872 196.452 39.777 196.323 39.7897H196.329Z" fill="white"/>
<path d="M203.189 37.2448C203.079 37.3145 203.054 37.4538 203.131 37.5614C203.176 37.6248 203.248 37.6628 203.319 37.6628C203.364 37.6628 203.409 37.6501 203.454 37.6248C203.558 37.5488 203.584 37.4095 203.513 37.3081C203.435 37.2005 203.293 37.1815 203.189 37.2511V37.2448Z" fill="white"/>
<path d="M188.901 10.8545C188.901 10.8545 188.959 10.8545 188.985 10.8418C189.101 10.7975 189.159 10.6645 189.114 10.5442C189.075 10.4302 188.94 10.3732 188.817 10.4175C188.694 10.4555 188.636 10.5885 188.681 10.7088C188.72 10.7975 188.804 10.8545 188.901 10.8545Z" fill="white"/>
<path d="M203.267 12.521C203.338 12.521 203.416 12.483 203.455 12.4196C203.532 12.3183 203.5 12.1727 203.396 12.103C203.293 12.027 203.151 12.0587 203.073 12.16C202.996 12.2677 203.028 12.4006 203.131 12.4766C203.17 12.502 203.215 12.521 203.261 12.521H203.267Z" fill="white"/>
<path d="M199.86 10.8114C199.86 10.8114 199.918 10.824 199.937 10.824C200.034 10.824 200.125 10.767 200.157 10.672C200.202 10.558 200.144 10.4251 200.021 10.3807C199.899 10.3364 199.763 10.3934 199.724 10.5137C199.679 10.634 199.737 10.767 199.86 10.8114Z" fill="white"/>
<path d="M206.086 14.9527C206.144 14.9527 206.196 14.9337 206.241 14.8957C206.338 14.807 206.344 14.6677 206.26 14.5727C206.176 14.484 206.028 14.4714 205.937 14.5537C205.84 14.6424 205.827 14.7817 205.918 14.8767C205.956 14.9273 206.028 14.9527 206.092 14.9527H206.086Z" fill="white"/>
<path d="M209.571 21.3994C209.571 21.3994 209.609 21.3994 209.629 21.3931C209.752 21.3677 209.829 21.2411 209.803 21.1207C209.771 21.0004 209.648 20.9244 209.519 20.9498C209.396 20.9814 209.318 21.1017 209.351 21.2284C209.377 21.3361 209.474 21.3994 209.577 21.3994H209.571Z" fill="white"/>
<path d="M180.553 18.0244C180.586 18.0434 180.625 18.0498 180.663 18.0498C180.747 18.0498 180.825 18.0054 180.87 17.9294C180.928 17.8154 180.89 17.6761 180.773 17.6191C180.663 17.5621 180.515 17.6064 180.463 17.7141C180.405 17.8281 180.444 17.9674 180.56 18.0244H180.553Z" fill="white"/>
<path d="M208.233 17.9672C208.271 17.9672 208.31 17.9609 208.342 17.9419C208.459 17.8849 208.498 17.7456 208.439 17.6379C208.381 17.5239 208.239 17.4859 208.129 17.5429C208.013 17.5999 207.974 17.7393 208.032 17.8533C208.071 17.9293 208.155 17.9736 208.239 17.9736L208.233 17.9672Z" fill="white"/>
<path d="M185.584 12.5775C185.629 12.5775 185.674 12.5649 185.713 12.5332C185.823 12.4635 185.849 12.3179 185.771 12.2165C185.694 12.1089 185.551 12.0899 185.448 12.1596C185.344 12.2292 185.319 12.3749 185.39 12.4762C185.428 12.5395 185.506 12.5775 185.577 12.5775H185.584Z" fill="white"/>
<path d="M196.265 9.95554C196.265 9.95554 196.284 9.95554 196.291 9.95554C196.407 9.95554 196.504 9.86688 196.517 9.75289C196.536 9.62623 196.446 9.51224 196.31 9.49957C196.187 9.48691 196.071 9.56923 196.052 9.70223C196.039 9.82255 196.123 9.93654 196.258 9.95554H196.265Z" fill="white"/>
<path d="M182.784 15.0164C182.849 15.0164 182.914 14.991 182.959 14.9404C183.043 14.8454 183.036 14.6997 182.939 14.6174C182.842 14.5351 182.694 14.5414 182.61 14.6364C182.526 14.7314 182.532 14.877 182.629 14.9594C182.674 14.9974 182.733 15.0164 182.784 15.0164Z" fill="white"/>
<path d="M192.541 9.96824H192.567C192.69 9.95558 192.787 9.84158 192.767 9.71493C192.754 9.5946 192.638 9.4996 192.509 9.5186C192.379 9.53127 192.289 9.64526 192.302 9.77192C192.315 9.89225 192.418 9.97458 192.535 9.97458L192.541 9.96824Z" fill="white"/>
<path d="M389.034 75.7201H370.104V23.4383C370.104 22.8448 369.608 22.3592 369.002 22.3592H308.245C307.948 22.3592 307.661 22.4779 307.463 22.6829L294.693 35.4593H275.013L264.094 22.7477C263.885 22.4995 263.576 22.3592 263.245 22.3592H241.756V24.5174H262.739L273.658 37.229C273.867 37.4772 274.176 37.6175 274.506 37.6175H295.166C295.464 37.6175 295.75 37.4988 295.949 37.2938L308.719 24.5174H367.911V76.7992C367.911 77.3927 368.407 77.8783 369.013 77.8783H387.943V188.42H369.013C368.671 188.42 368.352 188.571 368.143 188.83L321.831 246.842H30.9072L2.20372 214.868V24.5174H127.83V22.3592H1.10186C0.495837 22.3592 0 22.8448 0 23.4383V215.279C0 215.538 0.0991674 215.796 0.275465 215.991L29.585 248.633C29.7943 248.871 30.0918 249 30.4113 249H322.36C322.702 249 323.021 248.849 323.231 248.59L369.542 190.578H389.034C389.64 190.578 390.136 190.093 390.136 189.499V76.7992C390.136 76.2057 389.64 75.7201 389.034 75.7201Z" fill="white"/>
</svg>
