<svg width="376" height="273" viewBox="0 0 376 273" fill="none" xmlns="http://www.w3.org/2000/svg">
<path d="M1.05629 50C0.47533 50 0 50.4756 0 51.057V238.969C0 239.223 0.095066 239.476 0.264072 239.667L28.3613 271.641C28.562 271.873 28.8472 272 29.1536 272H309.028C309.355 272 309.661 271.852 309.862 271.598L354.258 214.774H372.944C373.525 214.774 374 214.299 374 213.717V103.325C374 102.744 373.525 102.268 372.944 102.268H354.797V51.057C354.797 50.4756 354.321 50 353.74 50H295.497C295.211 50 294.937 50.1163 294.747 50.3171L282.504 62.8319H263.639L253.171 50.3805C252.97 50.1374 252.675 50 252.358 50H1.05629Z" fill="white" fill-opacity="0.1"/>
<path d="M195.902 46.6251V44.0703H193.347C193.852 44.4255 194.325 44.8181 194.762 45.2542C195.179 45.678 195.565 46.1391 195.902 46.6251Z" fill="white"/>
<path d="M179.065 58.3838V60.9074H181.577C181.097 60.5709 180.648 60.1971 180.231 59.7858C179.801 59.3559 179.414 58.8885 179.065 58.39V58.3838Z" fill="white"/>
<path d="M187.478 46.3385V44.0703H179.065V48.3449L181.95 49.7843C182.954 47.7467 185.047 46.3385 187.471 46.3385H187.478Z" fill="white"/>
<path d="M212.57 43.8464C212.57 43.971 212.67 44.0707 212.795 44.0707H215.462V60.9075H212.795C212.67 60.9075 212.57 61.0072 212.57 61.1318C212.57 61.2564 212.67 61.3561 212.795 61.3561H215.91V43.6221H212.795C212.67 43.6221 212.57 43.7218 212.57 43.8464Z" fill="white"/>
<path d="M161.425 60.9075H158.758V44.0707H161.425C161.549 44.0707 161.649 43.971 161.649 43.8464C161.649 43.7218 161.549 43.6221 161.425 43.6221H158.309V52.4579H155.299C155.287 51.8348 154.776 51.3301 154.153 51.3301C153.53 51.3301 153 51.8473 153 52.4829C153 53.1184 153.517 53.6356 154.153 53.6356C154.72 53.6356 155.187 53.2244 155.281 52.6823H158.309V61.3561H161.425C161.549 61.3561 161.649 61.2564 161.649 61.1318C161.649 61.0072 161.549 60.9075 161.425 60.9075Z" fill="white"/>
<path d="M200.538 53.6481C200.139 53.5048 199.846 53.1496 199.79 52.7134C199.79 52.6636 199.778 52.62 199.778 52.5701C199.778 52.4642 199.797 52.3645 199.821 52.2648C199.921 51.8971 200.195 51.6105 200.551 51.4859C200.619 51.4609 200.694 51.4423 200.769 51.4298C200.227 44.5692 194.481 39.1543 187.484 39.1543C180.486 39.1543 174.741 44.5692 174.199 51.4236C174.274 51.4298 174.348 51.4485 174.417 51.4672C174.784 51.5856 175.071 51.8784 175.171 52.2523C175.196 52.352 175.214 52.4517 175.214 52.5576C175.214 52.6075 175.208 52.6573 175.202 52.701C175.146 53.1434 174.841 53.5048 174.423 53.6419C174.355 53.6668 174.28 53.6793 174.205 53.6917C174.822 60.4713 180.536 65.8052 187.477 65.8052C194.419 65.8052 200.133 60.4713 200.75 53.6855C200.675 53.673 200.6 53.6543 200.532 53.6294L200.538 53.6481ZM178.268 47.9465L178.623 48.121V43.6221H187.477V42.2201C188.923 42.2201 190.294 42.5192 191.546 43.055C191.927 43.2171 192.288 43.4102 192.643 43.6158H196.357V47.3172C197.211 48.7753 197.709 50.4577 197.753 52.2585H192.219L187.49 47.5291L182.704 52.3146L179.072 52.2897H178.623L177.215 52.2772C177.258 50.7444 177.626 49.2364 178.268 47.9403V47.9465ZM188.699 52.4953C188.699 53.1683 188.157 53.7104 187.484 53.7104C186.811 53.7104 186.269 53.1683 186.269 52.4953C186.269 51.8224 186.811 51.2802 187.484 51.2802C188.157 51.2802 188.699 51.8224 188.699 52.4953ZM189.783 65.3939L189.285 62.6148C190.5 62.3967 191.64 61.9605 192.674 61.3561H187.477V62.7768C185.577 62.7768 183.795 62.2596 182.268 61.3561H178.617V57.6797C178.367 57.256 178.137 56.8198 177.95 56.3587L178.617 56.0907V52.7072H179.065V55.91L181.77 54.8258C181.502 54.1715 181.346 53.4549 181.321 52.7134H182.748L187.477 57.4429L192.207 52.7134H193.615C193.559 54.3398 192.88 55.8041 191.802 56.8759C190.93 57.7358 189.808 58.3402 188.549 58.5583C188.2 58.6206 187.839 58.658 187.465 58.658V60.9075H193.36C193.84 60.571 194.294 60.1971 194.712 59.7859L195.834 60.9075H195.89V52.7134H196.338V61.3561H196.282L196.712 61.7861C194.861 63.6305 192.456 64.9141 189.777 65.3939H189.783Z" fill="white"/>
<path d="M220.727 51.3301C220.098 51.3301 219.593 51.8348 219.58 52.4579H216.353C216.29 52.4579 216.24 52.5078 216.24 52.5701C216.24 52.6324 216.29 52.6823 216.353 52.6823H219.599C219.693 53.2244 220.16 53.6356 220.727 53.6356C221.363 53.6356 221.88 53.1184 221.88 52.4829C221.88 51.8473 221.363 51.3301 220.727 51.3301Z" fill="white"/>
<path d="M187.172 52.4893C187.172 52.6575 187.309 52.8009 187.483 52.8009C187.658 52.8009 187.795 52.6638 187.795 52.4893C187.795 52.3148 187.658 52.1777 187.483 52.1777C187.309 52.1777 187.172 52.3148 187.172 52.4893Z" fill="white"/>
<path d="M187.085 28C175.75 28 165.961 35.6831 163.288 46.6812C163.232 46.9242 163.375 47.161 163.618 47.2233C163.861 47.2856 164.098 47.1361 164.16 46.893C166.74 36.3 176.168 28.8973 187.085 28.8973C200.021 28.8973 210.552 39.3595 210.67 52.2644H204.726C204.651 46.2699 201.498 41.0045 196.781 37.9699L199.367 34.0567L197.46 32.9538L195.398 37.1661C194.538 36.7175 193.634 36.3374 192.699 36.0445L194.189 31.5954L192.064 31.0221L191.16 35.6332C190.219 35.4276 189.254 35.2968 188.263 35.2531L188.549 30.5548H186.344L186.668 35.2531C185.677 35.2968 184.711 35.4276 183.776 35.6332L182.835 31.0097L180.711 31.5829L182.243 36.0507C181.309 36.3498 180.411 36.7299 179.552 37.1723L177.439 32.9351L175.532 34.038L178.181 37.9699C177.358 38.4996 176.585 39.0853 175.869 39.7396L172.722 36.1816L171.164 37.7394L174.747 40.8612C174.093 41.5778 173.501 42.3505 172.971 43.173L169.002 40.5434L167.899 42.4502L172.174 44.5439C171.725 45.4038 171.351 46.3011 171.052 47.2295L166.541 45.7216L165.967 47.8464L170.635 48.7624C170.385 49.8965 170.248 51.068 170.23 52.2706H165.999C165.849 51.1427 164.896 50.2704 163.73 50.2704C162.459 50.2704 161.431 51.2985 161.431 52.5697C161.431 53.8409 162.459 54.869 163.73 54.869C165.002 54.869 165.936 53.9156 166.017 52.713H170.23C170.242 53.8845 170.373 55.0248 170.61 56.1215L165.949 57.0686L166.516 59.1935L171.015 57.6544C171.308 58.589 171.682 59.4863 172.124 60.3462L167.862 62.4711L168.965 64.3778L172.909 61.7233C173.432 62.5459 174.018 63.3248 174.672 64.0414L171.114 67.1944L172.672 68.7522L175.794 65.1692C176.511 65.8297 177.277 66.4217 178.1 66.9576L175.483 70.9144L177.389 72.0173L179.471 67.7614C180.324 68.21 181.228 68.5964 182.156 68.8955L180.654 73.3757L182.786 73.949L183.689 69.3192C184.63 69.5311 185.59 69.6681 186.58 69.718L186.294 74.4226H188.5L188.176 69.7242C189.166 69.6868 190.132 69.5622 191.073 69.3628L192.008 73.9677L194.133 73.3944L192.612 68.9578C193.553 68.6649 194.45 68.291 195.317 67.8486L197.41 72.0485L199.317 70.9455L196.7 67.0573C197.529 66.5338 198.307 65.9419 199.03 65.2876L202.133 68.7958L203.691 67.238L200.164 64.166C200.825 63.4494 201.423 62.6767 201.953 61.8542L205.853 64.4339L206.956 62.5272L202.763 60.4771C203.211 59.6172 203.598 58.7137 203.897 57.779L208.321 59.2558L208.894 57.1247L204.321 56.2274C204.576 55.0933 204.713 53.9094 204.732 52.7005H210.676C210.558 65.6054 200.021 76.0676 187.091 76.0676C176.193 76.0676 166.771 68.6836 164.179 58.1155C164.123 57.8725 163.88 57.7291 163.637 57.7852C163.394 57.8413 163.251 58.0843 163.307 58.3273C165.999 69.3005 175.775 76.9649 187.091 76.9649C200.594 76.9649 211.58 65.9793 211.58 52.4762C211.58 38.9732 200.588 28 187.085 28ZM203.436 56.0654L203.049 57.4986C202.763 58.4021 202.395 59.262 201.959 60.0908L201.274 61.2747C200.707 62.1658 200.052 63.0007 199.323 63.7672L198.744 64.3467C195.809 67.1383 191.839 68.8519 187.471 68.8519C178.511 68.8519 171.233 61.6486 171.114 52.713H172.317H172.498H172.934C172.934 52.6632 172.922 52.6195 172.922 52.5697C172.922 52.4638 172.94 52.3641 172.965 52.2644H171.114C171.233 43.3288 178.511 36.1255 187.471 36.1255C196.432 36.1255 203.71 43.3288 203.828 52.2644H202.028C202.052 52.3641 202.071 52.4638 202.071 52.5697C202.071 52.6195 202.065 52.6694 202.059 52.713H203.828C203.816 53.8658 203.679 54.9812 203.436 56.0654Z" fill="white"/>
<path d="M178.728 64.7149C178.654 64.8208 178.685 64.9579 178.784 65.0264C178.822 65.0576 178.866 65.0638 178.909 65.0638C178.978 65.0638 179.046 65.0327 179.09 64.9704C179.165 64.8644 179.133 64.7273 179.034 64.6588C178.934 64.5902 178.791 64.6152 178.722 64.7149H178.728Z" fill="white"/>
<path d="M182.193 66.3098C182.081 66.2662 181.95 66.3285 181.907 66.4469C181.863 66.5591 181.919 66.6899 182.037 66.7336C182.062 66.7398 182.094 66.746 182.118 66.746C182.206 66.746 182.293 66.6899 182.33 66.6027C182.374 66.4843 182.312 66.3535 182.193 66.3098Z" fill="white"/>
<path d="M176.055 62.2845C175.962 62.3655 175.949 62.5088 176.037 62.5961C176.08 62.6459 176.143 62.6708 176.205 62.6708C176.261 62.6708 176.311 62.6521 176.354 62.6148C176.448 62.5338 176.46 62.3904 176.379 62.3032C176.292 62.2097 176.155 62.1973 176.062 62.2845H176.055Z" fill="white"/>
<path d="M172.803 55.885C172.684 55.9099 172.603 56.0346 172.635 56.153C172.66 56.2589 172.753 56.3212 172.853 56.3212C172.871 56.3212 172.89 56.3212 172.909 56.3212C173.027 56.29 173.102 56.1717 173.071 56.047C173.046 55.9286 172.921 55.8539 172.803 55.885Z" fill="white"/>
<path d="M173.052 48.9746C173.077 48.8562 173.009 48.7315 172.884 48.7004C172.765 48.6755 172.641 48.744 172.616 48.8686C172.585 48.987 172.66 49.1117 172.784 49.1366C172.803 49.1366 172.815 49.1428 172.834 49.1428C172.94 49.1428 173.027 49.068 173.052 48.9746Z" fill="white"/>
<path d="M185.658 67.1574C185.534 67.145 185.428 67.2322 185.409 67.3568C185.396 67.4752 185.484 67.5874 185.608 67.6061H185.633C185.745 67.6061 185.839 67.5188 185.858 67.4067C185.87 67.2821 185.783 67.1761 185.658 67.1574Z" fill="white"/>
<path d="M174.037 59.2813C173.925 59.3373 173.887 59.4744 173.943 59.5866C173.981 59.6614 174.062 59.705 174.143 59.705C174.18 59.705 174.217 59.6987 174.249 59.68C174.361 59.624 174.398 59.4869 174.342 59.381C174.286 59.2688 174.149 59.2314 174.043 59.2875L174.037 59.2813Z" fill="white"/>
<path d="M198.488 62.2784C198.407 62.3719 198.413 62.509 198.513 62.5962C198.55 62.6336 198.606 62.6523 198.662 62.6523C198.718 62.6523 198.781 62.6274 198.831 62.5775C198.912 62.4903 198.899 62.347 198.812 62.266C198.718 62.1787 198.581 62.1912 198.494 62.2846L198.488 62.2784Z" fill="white"/>
<path d="M200.818 59.2562C200.706 59.2002 200.569 59.2375 200.513 59.3497C200.457 59.4556 200.501 59.599 200.607 59.6488C200.644 59.6675 200.675 59.6737 200.712 59.6737C200.793 59.6737 200.874 59.6301 200.912 59.5553C200.968 59.4494 200.924 59.3123 200.818 59.2562Z" fill="white"/>
<path d="M201.778 56.0161C201.747 56.1345 201.822 56.2529 201.946 56.2841C201.965 56.2841 201.984 56.2841 202.002 56.2841C202.102 56.2841 202.189 56.2155 202.22 56.1158C202.252 55.9974 202.177 55.8728 202.052 55.8479C201.934 55.8167 201.815 55.8915 201.784 56.0161H201.778Z" fill="white"/>
<path d="M192.68 66.3028C192.562 66.3464 192.506 66.4773 192.549 66.5895C192.581 66.6767 192.668 66.739 192.755 66.739C192.78 66.739 192.811 66.739 192.836 66.7203C192.954 66.6829 193.011 66.5521 192.967 66.4337C192.923 66.3153 192.792 66.2592 192.68 66.3028Z" fill="white"/>
<path d="M189.216 67.1505C189.091 67.1692 189.004 67.2814 189.016 67.3998C189.029 67.5119 189.128 67.5992 189.241 67.5992H189.266C189.384 67.5805 189.477 67.4683 189.459 67.3499C189.446 67.2315 189.334 67.1381 189.209 67.1505H189.216Z" fill="white"/>
<path d="M195.827 64.6465C195.721 64.715 195.696 64.8521 195.771 64.958C195.815 65.0203 195.883 65.0577 195.952 65.0577C195.995 65.0577 196.039 65.0453 196.083 65.0203C196.182 64.9456 196.207 64.8085 196.139 64.7088C196.064 64.6028 195.927 64.5842 195.827 64.6527V64.6465Z" fill="white"/>
<path d="M182.056 38.6801C182.056 38.6801 182.113 38.6801 182.137 38.6676C182.25 38.624 182.306 38.4932 182.262 38.3748C182.225 38.2626 182.094 38.2065 181.975 38.2502C181.857 38.2875 181.801 38.4184 181.845 38.5368C181.882 38.624 181.963 38.6801 182.056 38.6801Z" fill="white"/>
<path d="M195.902 40.3199C195.971 40.3199 196.045 40.2825 196.083 40.2202C196.158 40.1205 196.126 39.9771 196.027 39.9086C195.927 39.8338 195.79 39.865 195.715 39.9647C195.64 40.0706 195.672 40.2015 195.771 40.2762C195.809 40.3012 195.852 40.3199 195.896 40.3199H195.902Z" fill="white"/>
<path d="M192.618 38.6377C192.618 38.6377 192.674 38.6501 192.693 38.6501C192.786 38.6501 192.874 38.5941 192.905 38.5006C192.948 38.3884 192.892 38.2576 192.774 38.2139C192.656 38.1703 192.525 38.2264 192.487 38.3448C192.444 38.4632 192.5 38.5941 192.618 38.6377Z" fill="white"/>
<path d="M198.619 42.7125C198.675 42.7125 198.725 42.6938 198.768 42.6564C198.862 42.5692 198.868 42.4321 198.787 42.3386C198.706 42.2514 198.563 42.2389 198.475 42.3199C198.382 42.4071 198.369 42.5442 198.457 42.6377C198.494 42.6876 198.563 42.7125 198.625 42.7125H198.619Z" fill="white"/>
<path d="M201.977 49.0556C201.977 49.0556 202.015 49.0556 202.033 49.0494C202.152 49.0244 202.226 48.8998 202.202 48.7814C202.17 48.663 202.052 48.5883 201.927 48.6132C201.809 48.6443 201.734 48.7627 201.765 48.8874C201.79 48.9933 201.884 49.0556 201.983 49.0556H201.977Z" fill="white"/>
<path d="M174.011 45.7349C174.043 45.7536 174.08 45.7598 174.117 45.7598C174.198 45.7598 174.273 45.7162 174.317 45.6414C174.373 45.5293 174.335 45.3922 174.223 45.3361C174.117 45.28 173.974 45.3236 173.924 45.4296C173.868 45.5417 173.906 45.6788 174.018 45.7349H174.011Z" fill="white"/>
<path d="M200.688 45.6786C200.725 45.6786 200.762 45.6724 200.794 45.6537C200.906 45.5976 200.943 45.4605 200.887 45.3546C200.831 45.2424 200.694 45.205 200.588 45.2611C200.476 45.3172 200.438 45.4543 200.495 45.5664C200.532 45.6412 200.613 45.6848 200.694 45.6848L200.688 45.6786Z" fill="white"/>
<path d="M178.859 40.3755C178.903 40.3755 178.947 40.363 178.984 40.3319C179.09 40.2633 179.115 40.12 179.04 40.0203C178.965 39.9144 178.828 39.8957 178.729 39.9642C178.629 40.0328 178.604 40.1761 178.672 40.2758C178.71 40.3381 178.785 40.3755 178.853 40.3755H178.859Z" fill="white"/>
<path d="M189.154 37.7956C189.154 37.7956 189.172 37.7956 189.179 37.7956C189.291 37.7956 189.384 37.7084 189.397 37.5962C189.415 37.4716 189.328 37.3594 189.197 37.347C189.079 37.3345 188.967 37.4155 188.948 37.5464C188.936 37.6648 189.017 37.7769 189.147 37.7956H189.154Z" fill="white"/>
<path d="M176.161 42.7752C176.224 42.7752 176.286 42.7502 176.33 42.7004C176.411 42.6069 176.404 42.4636 176.311 42.3826C176.218 42.3016 176.074 42.3078 175.993 42.4013C175.912 42.4947 175.918 42.6381 176.012 42.7191C176.055 42.7565 176.112 42.7752 176.161 42.7752Z" fill="white"/>
<path d="M265.232 0.444807H265.257C265.375 0.432344 265.469 0.320183 265.45 0.195558C265.437 0.0771652 265.325 -0.0163039 265.201 0.0023898C265.076 0.0148522 264.989 0.127015 265.001 0.251639C265.014 0.370032 265.113 0.451038 265.226 0.451038L265.232 0.444807Z" fill="white"/>
<path d="M374.938 102.504H356.694V51.0618C356.694 50.4778 356.216 50 355.632 50H297.077C296.79 50 296.514 50.1168 296.323 50.3185L284.015 62.8897H265.049L254.525 50.3822C254.323 50.138 254.026 50 253.707 50H232.996V52.1235H253.219L263.743 64.631C263.944 64.8752 264.242 65.0132 264.56 65.0132H284.472C284.758 65.0132 285.034 64.8964 285.226 64.6947L297.533 52.1235H354.581V103.565C354.581 104.149 355.059 104.627 355.643 104.627H373.887V213.393H355.643C355.313 213.393 355.005 213.542 354.804 213.797L310.171 270.876H29.7873L2.12387 239.417V52.1235H123.199V50H1.06194C0.477872 50 0 50.4778 0 51.0618V239.82C0 240.075 0.0955743 240.33 0.265484 240.521L28.513 272.639C28.7148 272.873 29.0015 273 29.3095 273H310.68C311.009 273 311.317 272.851 311.519 272.597L356.152 215.517H374.938C375.522 215.517 376 215.039 376 214.455V103.565C376 102.981 375.522 102.504 374.938 102.504Z" fill="white"/>
</svg>
