<svg width="384" height="231" viewBox="0 0 384 231" fill="none" xmlns="http://www.w3.org/2000/svg">
<g filter="url(#filter0_d_4015_142)">
<path d="M378.938 52.5037H360.694V1.06175C360.694 0.477789 360.216 0 359.632 0H301.077C300.79 0 300.514 0.116793 300.323 0.318526L288.015 12.8897H269.049L258.525 0.382231C258.323 0.138028 258.026 0 257.707 0H236.996V2.12351H257.219L267.743 14.631C267.944 14.8752 268.242 15.0132 268.56 15.0132H288.472C288.758 15.0132 289.034 14.8964 289.226 14.6947L301.533 2.12351H358.581V53.5654C358.581 54.1494 359.059 54.6272 359.643 54.6272H377.887V163.393H359.643C359.313 163.393 359.005 163.542 358.804 163.797L314.171 220.876H33.7873L6.12387 189.417V2.12351H127.199V0H5.06194C4.47787 0 4 0.477789 4 1.06175V189.82C4 190.075 4.09557 190.33 4.26548 190.521L32.513 222.639C32.7148 222.873 33.0015 223 33.3095 223H314.68C315.009 223 315.317 222.851 315.519 222.597L360.152 165.517H378.938C379.522 165.517 380 165.039 380 164.455V53.5654C380 52.9815 379.522 52.5037 378.938 52.5037Z" fill="white"/>
<path d="M5.05629 1C4.47533 1 4 1.47565 4 2.05699V189.969C4 190.223 4.09507 190.476 4.26407 190.667L32.3613 222.641C32.562 222.873 32.8472 223 33.1536 223H313.028C313.355 223 313.661 222.852 313.862 222.598L358.258 165.774H376.944C377.525 165.774 378 165.299 378 164.717V54.3252C378 53.7439 377.525 53.2682 376.944 53.2682H358.797V2.05699C358.797 1.47565 358.321 1 357.74 1H299.497C299.211 1 298.937 1.11627 298.747 1.3171L286.504 13.8319H267.639L257.171 1.38052C256.97 1.13741 256.675 1 256.358 1H5.05629Z" fill="white" fill-opacity="0.1"/>
</g>
<defs>
<filter id="filter0_d_4015_142" x="0" y="0" width="384" height="231" filterUnits="userSpaceOnUse" color-interpolation-filters="sRGB">
<feFlood flood-opacity="0" result="BackgroundImageFix"/>
<feColorMatrix in="SourceAlpha" type="matrix" values="0 0 0 0 0 0 0 0 0 0 0 0 0 0 0 0 0 0 127 0" result="hardAlpha"/>
<feOffset dy="4"/>
<feGaussianBlur stdDeviation="2"/>
<feComposite in2="hardAlpha" operator="out"/>
<feColorMatrix type="matrix" values="0 0 0 0 0 0 0 0 0 0 0 0 0 0 0 0 0 0 0.25 0"/>
<feBlend mode="normal" in2="BackgroundImageFix" result="effect1_dropShadow_4015_142"/>
<feBlend mode="normal" in="SourceGraphic" in2="effect1_dropShadow_4015_142" result="shape"/>
</filter>
</defs>
</svg>
