<svg width="390" height="250" viewBox="0 0 390 250" fill="none" xmlns="http://www.w3.org/2000/svg">
<path d="M147.394 26.8613C147.088 26.8613 146.781 26.9987 146.581 27.2418L136.116 39.6926H117.257L105.019 27.1784C104.818 26.9776 104.543 26.8613 104.269 26.8613H46.0436C45.4628 26.8613 44.9877 27.337 44.9877 27.9183V80.3743C44.9877 80.9556 45.4628 81.4312 46.0436 81.4312H63.4774V189.704H46.0436C45.7163 189.704 45.4101 189.852 45.2094 190.106L0.225865 247.149C-0.0275632 247.466 -0.0698181 247.9 0.109694 248.269C0.289206 248.639 0.658815 248.861 1.06008 248.861H357.856C358.162 248.861 358.447 248.735 358.648 248.502L386.736 216.529C386.905 216.339 387 216.086 387 215.832V112.696C387 112.452 386.916 112.209 386.757 112.019L360.633 80.6068V27.9183C360.633 27.337 360.158 26.8613 359.577 26.8613H147.394Z" fill="white" fill-opacity="0.1"/>
<path d="M215.299 32.2283C215.299 31.7921 214.944 31.4307 214.501 31.4307C214.059 31.4307 213.704 31.7858 213.704 32.2283C213.704 32.6707 214.059 33.0259 214.501 33.0259C214.944 33.0259 215.299 32.6707 215.299 32.2283Z" fill="white"/>
<path d="M214.501 22.5576C216.501 22.5576 218.153 24.0655 218.39 26.0034H221.985C221.736 22.0778 218.489 18.9746 214.501 18.9746C210.513 18.9746 207.267 22.084 207.018 26.0034H210.613C210.85 24.0655 212.501 22.5576 214.501 22.5576ZM218.907 21.3736C219.119 21.3736 219.287 21.5481 219.287 21.7537C219.287 21.9594 219.119 22.1338 218.907 22.1338C218.695 22.1338 218.527 21.9656 218.527 21.7537C218.527 21.5419 218.701 21.3736 218.907 21.3736ZM217.941 22.5326C218.047 22.5326 218.134 22.6199 218.134 22.7258C218.134 22.8317 218.047 22.919 217.941 22.919C217.835 22.919 217.748 22.8317 217.748 22.7258C217.748 22.6199 217.835 22.5326 217.941 22.5326ZM214.508 19.2612C215.305 19.2612 215.953 19.9093 215.953 20.7069C215.953 21.5045 215.305 22.1525 214.508 22.1525C213.71 22.1525 213.062 21.5045 213.062 20.7069C213.062 19.9093 213.71 19.2612 214.508 19.2612Z" fill="white"/>
<path d="M214.501 23.0059C212.756 23.0059 211.311 24.3144 211.086 26.0031H211.311C211.529 24.439 212.875 23.2302 214.495 23.2302C216.115 23.2302 217.461 24.439 217.679 26.0031H217.903C217.685 24.3144 216.24 23.0059 214.489 23.0059H214.501Z" fill="white"/>
<path d="M223.181 1.9258C223.181 1.9258 223.231 1.93827 223.256 1.93827C223.35 1.93827 223.437 1.88218 223.468 1.78872C223.505 1.67032 223.449 1.53947 223.331 1.50208C223.212 1.46469 223.082 1.52701 223.044 1.63917C223.007 1.75756 223.063 1.88218 223.181 1.91957V1.9258Z" fill="white"/>
<path d="M229.101 4.91022C229.138 4.93515 229.182 4.95384 229.226 4.95384C229.3 4.95384 229.363 4.91645 229.406 4.85414C229.481 4.74821 229.45 4.61112 229.35 4.54258C229.244 4.47404 229.107 4.49896 229.039 4.59866C228.97 4.70459 229.001 4.84168 229.101 4.91022Z" fill="white"/>
<path d="M240.554 25.3918C240.554 25.5102 240.66 25.6036 240.778 25.6036H240.785C240.909 25.5974 241.003 25.4915 241.003 25.3731C240.996 25.2484 240.89 25.1487 240.772 25.1612C240.647 25.1612 240.554 25.2671 240.56 25.3918H240.554Z" fill="white"/>
<path d="M225.244 2.75383C225.244 2.75383 225.3 2.77252 225.331 2.77252C225.419 2.77252 225.5 2.72267 225.537 2.64166C225.587 2.52327 225.537 2.39242 225.425 2.34257C225.313 2.29272 225.176 2.34257 225.126 2.45473C225.076 2.56689 225.126 2.70398 225.244 2.75383Z" fill="white"/>
<path d="M218.907 0.822665H218.944C219.05 0.822665 219.144 0.747891 219.162 0.64196C219.187 0.523567 219.106 0.405174 218.982 0.380249C218.863 0.355324 218.745 0.442561 218.726 0.560954C218.701 0.679347 218.782 0.797741 218.907 0.822665Z" fill="white"/>
<path d="M221.069 1.28372C221.069 1.28372 221.106 1.29618 221.125 1.29618C221.225 1.29618 221.312 1.22764 221.343 1.12794C221.374 1.00954 221.306 0.884921 221.181 0.853765C221.063 0.822609 220.938 0.897383 220.907 1.01578C220.876 1.13417 220.944 1.25879 221.069 1.28995V1.28372Z" fill="white"/>
<path d="M216.714 0.542711H216.732C216.851 0.542711 216.944 0.455474 216.957 0.337081C216.963 0.212457 216.876 0.106526 216.751 0.0940639C216.633 0.0878327 216.521 0.17507 216.508 0.293463C216.502 0.418087 216.589 0.524018 216.714 0.542711Z" fill="white"/>
<path d="M240.367 23.1866C240.379 23.2987 240.479 23.386 240.591 23.386C240.597 23.386 240.61 23.386 240.616 23.386C240.735 23.3735 240.828 23.2614 240.809 23.1367C240.797 23.0183 240.685 22.9311 240.56 22.9436C240.442 22.956 240.348 23.0744 240.367 23.1928V23.1866Z" fill="white"/>
<path d="M235.463 11.0047C235.501 11.0607 235.569 11.0919 235.644 11.0919C235.687 11.0919 235.731 11.0794 235.775 11.0483C235.881 10.9735 235.893 10.8364 235.825 10.7367C235.75 10.6308 235.613 10.6121 235.513 10.6869C235.413 10.7616 235.395 10.905 235.463 10.9984V11.0047Z" fill="white"/>
<path d="M234.242 9.35896C234.292 9.35896 234.348 9.34027 234.391 9.30288C234.479 9.22187 234.491 9.07855 234.41 8.98509C234.329 8.89785 234.186 8.88539 234.098 8.96639C234.005 9.0474 233.992 9.19072 234.073 9.28418C234.117 9.33403 234.179 9.35273 234.242 9.35273V9.35896Z" fill="white"/>
<path d="M231.021 6.27499C231.089 6.27499 231.151 6.25007 231.195 6.19399C231.27 6.09429 231.257 5.95097 231.164 5.87619C231.07 5.80142 230.927 5.81388 230.852 5.91358C230.777 6.00705 230.79 6.15037 230.89 6.22514C230.927 6.2563 230.977 6.27499 231.027 6.27499H231.021Z" fill="white"/>
<path d="M232.697 7.75157C232.753 7.75157 232.815 7.72664 232.859 7.68302C232.946 7.59579 232.94 7.45247 232.852 7.36523C232.765 7.278 232.622 7.278 232.541 7.36523C232.454 7.45247 232.454 7.60202 232.541 7.68302C232.584 7.72041 232.64 7.74534 232.697 7.74534V7.75157Z" fill="white"/>
<path d="M227.213 3.75169C227.251 3.77038 227.288 3.77661 227.325 3.77661C227.4 3.77661 227.475 3.73299 227.518 3.66445C227.581 3.55852 227.543 3.4152 227.431 3.35912C227.325 3.29681 227.188 3.33419 227.126 3.44636C227.07 3.55229 227.101 3.68937 227.213 3.75169Z" fill="white"/>
<path d="M199.702 5.00282C199.745 5.00282 199.789 4.99036 199.826 4.96543C199.932 4.89689 199.957 4.7598 199.882 4.65387C199.814 4.54794 199.677 4.52302 199.571 4.59779C199.465 4.66633 199.44 4.80342 199.515 4.90935C199.552 4.97166 199.627 5.00905 199.695 5.00905L199.702 5.00282Z" fill="white"/>
<path d="M193.309 11.1724C193.378 11.1724 193.446 11.1412 193.49 11.0789C193.565 10.9792 193.546 10.8422 193.446 10.7674C193.346 10.6926 193.203 10.7113 193.135 10.811C193.06 10.9169 193.078 11.054 193.178 11.1226C193.222 11.1537 193.265 11.1662 193.315 11.1662L193.309 11.1724Z" fill="white"/>
<path d="M194.705 9.4347C194.767 9.4347 194.829 9.40978 194.873 9.35993C194.96 9.26646 194.948 9.12314 194.854 9.04213C194.761 8.96113 194.618 8.96736 194.537 9.06706C194.456 9.1543 194.468 9.29761 194.562 9.37862C194.599 9.41601 194.655 9.4347 194.711 9.4347H194.705Z" fill="white"/>
<path d="M201.597 3.82609C201.634 3.82609 201.671 3.81986 201.702 3.80116C201.808 3.73885 201.852 3.60177 201.79 3.49584C201.734 3.3899 201.59 3.34629 201.484 3.4086C201.378 3.46468 201.335 3.608 201.397 3.71393C201.435 3.7887 201.516 3.82609 201.597 3.82609Z" fill="white"/>
<path d="M196.244 7.81956C196.3 7.81956 196.356 7.79463 196.4 7.75724C196.487 7.67001 196.487 7.52669 196.4 7.43945C196.312 7.35221 196.169 7.35221 196.088 7.43945C196.001 7.52669 195.995 7.67001 196.082 7.75724C196.126 7.80086 196.188 7.82579 196.244 7.82579V7.81956Z" fill="white"/>
<path d="M209.959 0.835222C209.959 0.835222 209.984 0.835222 209.996 0.835222C210.114 0.816528 210.195 0.698135 210.177 0.579742C210.152 0.455118 210.04 0.374112 209.915 0.399037C209.797 0.423962 209.716 0.536124 209.734 0.660748C209.753 0.766679 209.847 0.841453 209.952 0.841453L209.959 0.835222Z" fill="white"/>
<path d="M214.402 0.448648C214.402 0.448648 214.439 0.448648 214.452 0.448648C214.47 0.448648 214.489 0.448648 214.508 0.448648C214.626 0.448648 214.732 0.348948 214.732 0.224324C214.732 0.0996995 214.626 0 214.508 0C214.489 0 214.47 0 214.452 0C214.439 0 214.421 0 214.402 0C214.277 0 214.177 0.105931 214.177 0.224324C214.177 0.342717 214.277 0.448648 214.402 0.448648Z" fill="white"/>
<path d="M212.177 0.547593H212.195C212.314 0.53513 212.414 0.4292 212.395 0.298344C212.389 0.179951 212.276 0.0802514 212.152 0.0989451C212.033 0.105176 211.934 0.217338 211.952 0.341963C211.959 0.460356 212.058 0.547593 212.177 0.547593Z" fill="white"/>
<path d="M203.584 2.81601C203.616 2.81601 203.647 2.81601 203.678 2.79732C203.79 2.74124 203.84 2.61662 203.79 2.49822C203.734 2.38606 203.603 2.33621 203.491 2.39229C203.379 2.44214 203.329 2.573 203.385 2.68516C203.422 2.76616 203.503 2.81601 203.584 2.81601Z" fill="white"/>
<path d="M205.653 1.97501C205.653 1.97501 205.703 1.97501 205.728 1.96255C205.846 1.91893 205.902 1.7943 205.865 1.67591C205.827 1.55752 205.697 1.50144 205.578 1.53882C205.46 1.58244 205.404 1.70707 205.441 1.82546C205.472 1.9127 205.56 1.97501 205.653 1.97501Z" fill="white"/>
<path d="M207.784 1.31474C207.784 1.31474 207.821 1.31474 207.84 1.3085C207.958 1.27735 208.033 1.15272 208.002 1.03433C207.971 0.915938 207.853 0.841163 207.728 0.872319C207.61 0.903475 207.535 1.0281 207.566 1.14649C207.591 1.24619 207.684 1.31474 207.784 1.31474Z" fill="white"/>
<path d="M197.914 6.34353C197.963 6.34353 198.013 6.32483 198.057 6.28745C198.157 6.21267 198.169 6.07559 198.094 5.97589C198.013 5.88242 197.876 5.86372 197.777 5.94473C197.683 6.01951 197.671 6.16282 197.745 6.25629C197.789 6.31237 197.851 6.34353 197.92 6.34353H197.914Z" fill="white"/>
<path d="M194.661 43.7741C194.568 43.8551 194.555 43.9985 194.636 44.0857C194.68 44.1355 194.742 44.1605 194.804 44.1605C194.861 44.1605 194.91 44.1418 194.954 44.1044C195.047 44.0172 195.054 43.8801 194.973 43.7866C194.892 43.6931 194.748 43.6807 194.661 43.7679V43.7741Z" fill="white"/>
<path d="M234.098 43.7181C234.011 43.8115 234.024 43.9486 234.117 44.0358C234.161 44.0732 234.217 44.0919 234.267 44.0919C234.329 44.0919 234.391 44.067 234.435 44.0172C234.516 43.9237 234.51 43.7804 234.41 43.6994C234.317 43.6184 234.179 43.6246 234.098 43.7243V43.7181Z" fill="white"/>
<path d="M235.488 41.9985C235.413 42.0982 235.432 42.2415 235.531 42.3101C235.569 42.3412 235.619 42.3537 235.669 42.3537C235.737 42.3537 235.806 42.3225 235.849 42.2664C235.924 42.1667 235.905 42.0234 235.806 41.9549C235.7 41.8801 235.563 41.8988 235.494 41.9985H235.488Z" fill="white"/>
<path d="M216.763 52.4978C216.645 52.5102 216.551 52.6161 216.564 52.7408C216.57 52.8529 216.67 52.9402 216.788 52.9402H216.807C216.925 52.9277 217.018 52.8218 217.012 52.6972C217 52.5725 216.894 52.4853 216.763 52.4915V52.4978Z" fill="white"/>
<path d="M214.551 53.0404C214.675 53.0404 214.776 52.94 214.776 52.8161C214.776 52.6922 214.675 52.5918 214.551 52.5918C214.427 52.5918 214.327 52.6922 214.327 52.8161C214.327 52.94 214.427 53.0404 214.551 53.0404Z" fill="white"/>
<path d="M218.957 52.2112C218.838 52.2361 218.751 52.3483 218.776 52.4729C218.795 52.5789 218.894 52.6599 219 52.6599C219.007 52.6599 219.025 52.6599 219.038 52.6599C219.156 52.6349 219.237 52.5228 219.218 52.3982C219.193 52.2798 219.081 52.1988 218.957 52.2112Z" fill="white"/>
<path d="M227.256 49.2699C227.15 49.326 227.107 49.4631 227.169 49.5753C227.213 49.6438 227.287 49.6874 227.368 49.6874C227.406 49.6874 227.443 49.675 227.481 49.6625C227.587 49.6002 227.624 49.4631 227.568 49.3572C227.506 49.2512 227.369 49.2076 227.263 49.2699H227.256Z" fill="white"/>
<path d="M231.226 46.8158C231.145 46.7161 231.008 46.7036 230.908 46.7846C230.815 46.8594 230.802 46.9965 230.877 47.0962C230.921 47.1523 230.983 47.1772 231.052 47.1772C231.102 47.1772 231.151 47.1647 231.195 47.1273C231.295 47.0526 231.307 46.9092 231.232 46.8158H231.226Z" fill="white"/>
<path d="M223.232 51.096C223.113 51.1334 223.051 51.2642 223.095 51.3826C223.126 51.4698 223.213 51.5322 223.306 51.5322C223.331 51.5322 223.356 51.5322 223.381 51.5197C223.493 51.4823 223.556 51.3515 223.518 51.2331C223.481 51.1147 223.35 51.0524 223.232 51.096Z" fill="white"/>
<path d="M225.281 50.2672C225.169 50.317 225.119 50.4479 225.175 50.56C225.213 50.641 225.294 50.6909 225.375 50.6909C225.406 50.6909 225.437 50.6909 225.468 50.6722C225.581 50.6161 225.63 50.4915 225.581 50.3793C225.524 50.2609 225.4 50.2111 225.281 50.2672Z" fill="white"/>
<path d="M232.565 45.3194C232.478 45.4066 232.478 45.5499 232.565 45.6309C232.609 45.6808 232.671 45.7057 232.727 45.7057C232.784 45.7057 232.84 45.6808 232.883 45.6434C232.97 45.5562 232.97 45.4128 232.883 45.3256C232.796 45.2384 232.653 45.2321 232.565 45.3256V45.3194Z" fill="white"/>
<path d="M221.119 51.7509C221 51.782 220.932 51.9004 220.963 52.025C220.988 52.1247 221.081 52.1933 221.181 52.1933C221.2 52.1933 221.219 52.1933 221.237 52.1933C221.356 52.1559 221.424 52.0375 221.393 51.9191C221.362 51.8007 221.243 51.7259 221.119 51.7571V51.7509Z" fill="white"/>
<path d="M197.858 46.8775C197.777 46.9709 197.796 47.1142 197.889 47.189C197.933 47.2202 197.982 47.2389 198.032 47.2389C198.095 47.2389 198.163 47.2139 198.207 47.1516C198.282 47.0582 198.263 46.9148 198.169 46.8401C198.07 46.7653 197.933 46.7778 197.858 46.8775Z" fill="white"/>
<path d="M199.951 48.1617C199.845 48.0932 199.708 48.1243 199.64 48.224C199.571 48.3237 199.602 48.4671 199.702 48.5356C199.739 48.5605 199.783 48.573 199.82 48.573C199.889 48.573 199.964 48.5418 200.007 48.4733C200.076 48.3736 200.045 48.2303 199.945 48.1617H199.951Z" fill="white"/>
<path d="M237.033 40.0913C236.927 40.0227 236.79 40.0601 236.722 40.1661C236.653 40.272 236.691 40.4091 236.796 40.4776C236.834 40.5026 236.871 40.5088 236.915 40.5088C236.99 40.5088 237.064 40.4714 237.108 40.4029C237.177 40.2969 237.139 40.1536 237.033 40.0913Z" fill="white"/>
<path d="M212.345 52.5042C212.221 52.498 212.115 52.5914 212.102 52.7098C212.096 52.8345 212.183 52.9404 212.308 52.9528C212.426 52.9591 212.539 52.8718 212.551 52.7472C212.557 52.6288 212.464 52.5167 212.345 52.5042Z" fill="white"/>
<path d="M201.839 49.314C201.733 49.258 201.596 49.2953 201.534 49.4013C201.478 49.5072 201.509 49.6443 201.621 49.7066C201.652 49.7253 201.696 49.7315 201.727 49.7315C201.802 49.7315 201.877 49.6941 201.927 49.6131C201.983 49.5072 201.945 49.3701 201.839 49.3078V49.314Z" fill="white"/>
<path d="M196.188 45.3942C196.101 45.4814 196.107 45.6247 196.194 45.712C196.238 45.7494 196.294 45.7743 196.344 45.7743C196.4 45.7743 196.462 45.7494 196.506 45.6995C196.593 45.6123 196.587 45.469 196.506 45.3817C196.418 45.2945 196.275 45.3007 196.188 45.388V45.3942Z" fill="white"/>
<path d="M207.984 51.7756C207.865 51.7445 207.735 51.8193 207.71 51.9377C207.678 52.056 207.747 52.1807 207.865 52.2118C207.89 52.2118 207.903 52.2118 207.922 52.2118C208.021 52.2118 208.115 52.1433 208.14 52.0436C208.171 51.9252 208.102 51.7943 207.978 51.7694L207.984 51.7756Z" fill="white"/>
<path d="M210.152 52.2302C210.033 52.2115 209.915 52.2925 209.896 52.4172C209.871 52.5355 209.952 52.6539 210.077 52.6789H210.114C210.22 52.6789 210.314 52.6041 210.332 52.4919C210.357 52.3735 210.27 52.2551 210.152 52.2302Z" fill="white"/>
<path d="M205.871 51.1271C205.752 51.0897 205.621 51.152 205.584 51.2642C205.547 51.3826 205.609 51.5134 205.721 51.5508C205.746 51.557 205.771 51.5633 205.796 51.5633C205.883 51.5633 205.977 51.5072 206.008 51.4075C206.045 51.2891 205.983 51.1582 205.871 51.1208V51.1271Z" fill="white"/>
<path d="M236.89 12.9481C236.927 12.9481 236.971 12.9356 237.008 12.9107C237.114 12.8421 237.146 12.7113 237.083 12.5991C237.015 12.4932 236.878 12.462 236.772 12.5306C236.666 12.5929 236.635 12.73 236.697 12.8421C236.741 12.9107 236.815 12.9481 236.89 12.9481Z" fill="white"/>
<path d="M203.815 50.3113C203.697 50.2615 203.566 50.3113 203.516 50.4235C203.466 50.5356 203.516 50.6727 203.628 50.7226C203.659 50.735 203.69 50.7475 203.722 50.7475C203.809 50.7475 203.89 50.6977 203.927 50.6104C203.977 50.4983 203.927 50.3612 203.815 50.3113Z" fill="white"/>
<path d="M240.622 29.6107C240.504 29.5983 240.392 29.6793 240.373 29.8039C240.355 29.9285 240.448 30.0407 240.566 30.0531C240.573 30.0531 240.585 30.0531 240.591 30.0531C240.703 30.0531 240.803 29.9659 240.816 29.8537C240.828 29.7291 240.741 29.6232 240.616 29.6045L240.622 29.6107Z" fill="white"/>
<path d="M239.65 19.0245C239.65 19.0245 239.694 19.0245 239.719 19.0183C239.837 18.9809 239.9 18.8563 239.868 18.7379C239.831 18.6195 239.706 18.551 239.588 18.5884C239.47 18.6257 239.401 18.7504 239.438 18.8688C239.47 18.9622 239.557 19.0245 239.65 19.0245Z" fill="white"/>
<path d="M188.218 25.71H188.224C188.343 25.71 188.442 25.6165 188.449 25.4981C188.449 25.3735 188.355 25.2676 188.231 25.2676C188.106 25.2676 188 25.3548 188 25.4857C188 25.6041 188.087 25.7162 188.218 25.7162V25.71Z" fill="white"/>
<path d="M239.732 33.9785C239.613 33.9412 239.489 34.0035 239.451 34.1281C239.414 34.2465 239.482 34.3711 239.601 34.4085C239.626 34.4147 239.644 34.421 239.669 34.421C239.763 34.421 239.85 34.3587 239.887 34.259C239.925 34.1406 239.856 34.0159 239.738 33.9785H239.732Z" fill="white"/>
<path d="M188.38 23.4791C188.38 23.4791 188.398 23.4791 188.405 23.4791C188.517 23.4791 188.617 23.3919 188.629 23.2797C188.641 23.1551 188.554 23.0429 188.43 23.0305C188.311 23.018 188.199 23.1053 188.18 23.2237C188.168 23.3483 188.255 23.4604 188.38 23.4729V23.4791Z" fill="white"/>
<path d="M189.028 32.0841C189.003 31.9657 188.885 31.8847 188.766 31.9159C188.648 31.9408 188.567 32.0654 188.598 32.1838C188.623 32.2898 188.716 32.3583 188.816 32.3583C188.835 32.3583 188.847 32.3583 188.866 32.3583C188.984 32.3334 189.065 32.215 189.034 32.0966L189.028 32.0841Z" fill="white"/>
<path d="M188.648 29.9033C188.629 29.7849 188.517 29.6977 188.399 29.7102C188.28 29.7289 188.187 29.841 188.206 29.9594C188.218 30.0716 188.318 30.1588 188.424 30.1588C188.436 30.1588 188.449 30.1588 188.455 30.1588C188.573 30.1464 188.667 30.0342 188.648 29.9096V29.9033Z" fill="white"/>
<path d="M188.243 27.9401C188.362 27.9339 188.461 27.828 188.455 27.7096C188.455 27.585 188.349 27.4853 188.224 27.4915C188.1 27.4915 188.006 27.5974 188.006 27.722C188.013 27.8404 188.112 27.9401 188.237 27.9401H188.243Z" fill="white"/>
<path d="M190.947 38.222C190.835 38.2781 190.792 38.409 190.848 38.5211C190.885 38.5959 190.966 38.6395 191.047 38.6395C191.084 38.6395 191.122 38.6395 191.153 38.6146C191.265 38.5585 191.303 38.4214 191.253 38.3155C191.197 38.2033 191.06 38.1597 190.954 38.2158L190.947 38.222Z" fill="white"/>
<path d="M229.132 48.1052C229.032 48.1738 229.001 48.3109 229.076 48.4168C229.12 48.4853 229.188 48.5165 229.257 48.5165C229.3 48.5165 229.344 48.504 229.381 48.4791C229.487 48.4043 229.512 48.2672 229.444 48.1675C229.369 48.0616 229.232 48.0367 229.132 48.1115V48.1052Z" fill="white"/>
<path d="M190.879 14.9551C190.91 14.9737 190.947 14.98 190.979 14.98C191.06 14.98 191.141 14.9364 191.178 14.8616C191.234 14.7494 191.184 14.6123 191.078 14.5625C190.966 14.5064 190.829 14.55 190.773 14.6622C190.717 14.7743 190.767 14.9114 190.879 14.9613V14.9551Z" fill="white"/>
<path d="M191.945 12.9915C191.982 13.0164 192.019 13.0226 192.063 13.0226C192.138 13.0226 192.212 12.9852 192.256 12.9167C192.318 12.8108 192.287 12.6737 192.181 12.6051C192.075 12.5428 191.938 12.574 191.876 12.6799C191.807 12.7858 191.839 12.9229 191.951 12.9915H191.945Z" fill="white"/>
<path d="M189.988 16.9989C189.988 16.9989 190.044 17.0176 190.069 17.0176C190.156 17.0176 190.243 16.9615 190.281 16.8805C190.324 16.7621 190.268 16.6313 190.156 16.5876C190.038 16.5378 189.907 16.5939 189.863 16.706C189.82 16.8244 189.869 16.9553 189.988 16.9989Z" fill="white"/>
<path d="M240.273 31.8109C240.155 31.786 240.03 31.867 240.005 31.9854C239.981 32.1038 240.062 32.2284 240.18 32.2471C240.192 32.2471 240.211 32.2471 240.224 32.2471C240.33 32.2471 240.423 32.1723 240.442 32.0726C240.467 31.9542 240.392 31.8296 240.273 31.8047V31.8109Z" fill="white"/>
<path d="M188.729 21.274C188.729 21.274 188.76 21.274 188.773 21.274C188.879 21.274 188.972 21.2054 188.991 21.0995C189.016 20.9811 188.941 20.8565 188.823 20.8378C188.704 20.8129 188.579 20.8876 188.555 21.006C188.53 21.1244 188.611 21.2491 188.729 21.2678V21.274Z" fill="white"/>
<path d="M240.211 21.1792C240.211 21.1792 240.242 21.1792 240.255 21.1792C240.373 21.1543 240.454 21.0297 240.429 20.9175C240.404 20.7929 240.28 20.7181 240.161 20.7431C240.043 20.768 239.962 20.8926 239.993 21.0048C240.018 21.1107 240.111 21.1855 240.211 21.1855V21.1792Z" fill="white"/>
<path d="M237.987 14.8927C238.018 14.8927 238.056 14.8864 238.087 14.8677C238.199 14.8116 238.242 14.6808 238.186 14.5686C238.13 14.4565 237.999 14.4191 237.887 14.4689C237.775 14.525 237.732 14.6621 237.788 14.768C237.831 14.849 237.906 14.8927 237.987 14.8927Z" fill="white"/>
<path d="M193.266 42.0301C193.166 42.0986 193.147 42.2419 193.222 42.3416C193.266 42.3977 193.334 42.4289 193.403 42.4289C193.446 42.4289 193.496 42.4102 193.54 42.3853C193.639 42.3105 193.658 42.1672 193.583 42.0737C193.509 41.974 193.365 41.9553 193.272 42.0301H193.266Z" fill="white"/>
<path d="M190.038 36.1845C189.925 36.2344 189.869 36.3653 189.919 36.4774C189.95 36.5646 190.038 36.6207 190.125 36.6207C190.15 36.6207 190.181 36.6083 190.212 36.602C190.324 36.5584 190.38 36.4213 190.33 36.3092C190.287 36.1908 190.156 36.1409 190.038 36.1845Z" fill="white"/>
<path d="M238.105 38.1357C237.993 38.0796 237.856 38.1233 237.806 38.2354C237.75 38.3476 237.794 38.4847 237.906 38.5345C237.937 38.5532 237.974 38.5595 238.006 38.5595C238.093 38.5595 238.168 38.5158 238.205 38.4411C238.261 38.3289 238.211 38.198 238.105 38.142V38.1357Z" fill="white"/>
<path d="M238.903 16.9179C238.903 16.9179 238.959 16.9179 238.99 16.8992C239.102 16.8556 239.158 16.7247 239.108 16.6064C239.065 16.488 238.934 16.4381 238.815 16.488C238.703 16.5316 238.647 16.6624 238.697 16.7808C238.734 16.8681 238.815 16.9179 238.903 16.9179Z" fill="white"/>
<path d="M239.009 36.0908C238.89 36.0472 238.759 36.097 238.716 36.2154C238.672 36.3338 238.722 36.4647 238.84 36.5083C238.865 36.5145 238.897 36.527 238.921 36.527C239.009 36.527 239.096 36.4709 239.133 36.3837C239.177 36.2653 239.121 36.1344 239.009 36.0908Z" fill="white"/>
<path d="M189.265 19.111C189.265 19.111 189.308 19.1173 189.333 19.1173C189.427 19.1173 189.514 19.055 189.551 18.9615C189.589 18.8431 189.52 18.7185 189.402 18.6811C189.283 18.6437 189.159 18.7122 189.121 18.8369C189.084 18.9553 189.152 19.0799 189.271 19.1173L189.265 19.111Z" fill="white"/>
<path d="M192.026 40.1786C191.92 40.2409 191.889 40.378 191.951 40.4902C191.994 40.5587 192.069 40.5961 192.144 40.5961C192.181 40.5961 192.225 40.5899 192.262 40.565C192.368 40.4964 192.399 40.3593 192.337 40.2534C192.269 40.1475 192.138 40.1163 192.026 40.1849V40.1786Z" fill="white"/>
<path d="M240.791 27.3857C240.666 27.3857 240.56 27.473 240.554 27.5976C240.554 27.7222 240.648 27.8282 240.766 27.8344H240.772C240.891 27.8344 240.99 27.7347 240.997 27.6225C240.997 27.4979 240.909 27.392 240.785 27.392L240.791 27.3857Z" fill="white"/>
<path d="M189.309 34.0788C189.19 34.1162 189.128 34.2408 189.159 34.3592C189.19 34.4589 189.277 34.5212 189.377 34.5212C189.402 34.5212 189.421 34.5212 189.446 34.5087C189.564 34.4713 189.626 34.3467 189.595 34.2283C189.558 34.1037 189.427 34.0476 189.315 34.0788H189.309Z" fill="white"/>
<path d="M214.501 8.86686V7.07227C203.815 7.07227 195.122 15.7648 195.122 26.4513H196.917C196.917 16.7556 204.805 8.86062 214.507 8.86062L214.501 8.86686Z" fill="white"/>
<path d="M214.501 48.3673V46.5727C209.111 46.5727 204.213 44.4354 200.599 40.9708L203.752 37.8178C206.556 40.4848 210.339 42.1298 214.507 42.1298V41.6812C210.463 41.6812 206.793 40.086 204.07 37.5001L206.089 35.4811C208.301 37.5374 211.261 38.8024 214.507 38.8024V38.4098C221.112 38.4098 226.484 33.0385 226.484 26.4334H226.876C226.876 19.6102 221.324 14.0645 214.507 14.0645V14.457C207.902 14.457 202.531 19.8283 202.531 26.4334H202.138C202.138 29.6861 203.397 32.6397 205.453 34.8518L203.441 36.8645C200.905 34.1539 199.347 30.5149 199.347 26.5144H198.898C198.898 30.6333 200.506 34.3844 203.123 37.1823L199.97 40.3353C196.518 36.7212 194.393 31.8296 194.393 26.4521H192.598C192.598 38.5344 202.425 48.3611 214.507 48.3611L214.501 48.3673ZM203.029 26.4396H202.637C202.637 19.8969 207.958 14.5754 214.501 14.5754V14.968C220.826 14.968 225.973 20.115 225.973 26.4396H226.365C226.365 32.9824 221.044 38.3039 214.501 38.3039V37.9113C211.498 37.9113 208.762 36.7523 206.718 34.858L209.504 32.0727C210.831 33.2628 212.582 33.9919 214.501 33.9919C218.508 33.9919 221.767 30.8513 221.991 26.9008H218.402C218.19 28.8698 216.526 30.4027 214.501 30.4027C213.573 30.4027 212.713 30.0724 212.04 29.5303L212.395 29.1752C212.974 29.6238 213.704 29.898 214.501 29.898C216.246 29.898 217.691 28.5894 217.916 26.9008H217.691C217.473 28.4648 216.127 29.6736 214.507 29.6736C213.778 29.6736 213.105 29.4244 212.563 29.0131L213.473 28.1034C213.772 28.2965 214.127 28.4087 214.507 28.4087C215.573 28.4087 216.439 27.5426 216.439 26.477C216.439 25.4115 215.573 24.5454 214.507 24.5454C213.442 24.5454 212.576 25.4115 212.576 26.477C212.576 26.8384 212.682 27.1687 212.85 27.4553L211.934 28.3713C211.616 27.9476 211.398 27.4429 211.323 26.8945H211.099C211.18 27.5052 211.417 28.066 211.778 28.5333L211.423 28.8885C210.98 28.3277 210.688 27.6423 210.613 26.8945H207.024C207.117 28.6268 207.803 30.2033 208.881 31.4309L206.095 34.2162C204.201 32.1661 203.042 29.4306 203.042 26.4334L203.029 26.4396ZM213.018 32.2347C213.018 31.4184 213.685 30.7516 214.501 30.7516C215.317 30.7516 215.984 31.4184 215.984 32.2347C215.984 33.051 215.317 33.7177 214.501 33.7177C213.685 33.7177 213.018 33.051 213.018 32.2347Z" fill="white"/>
<path d="M213.604 50.5294C213.604 50.5294 213.617 50.5548 213.629 50.5548C213.642 50.5548 213.655 50.5421 213.655 50.5294C213.655 50.5166 213.642 50.5039 213.629 50.5039C213.617 50.5039 213.604 50.5166 213.604 50.5294Z" fill="white"/>
<path d="M212.732 50.4297C212.732 50.4297 212.682 50.4484 212.682 50.4797C212.682 50.5109 212.7 50.5297 212.732 50.5297C212.763 50.5297 212.782 50.5109 212.782 50.4797C212.782 50.4484 212.763 50.4297 212.732 50.4297Z" fill="white"/>
<path d="M211.828 50.3291C211.791 50.3291 211.759 50.3604 211.759 50.3979C211.759 50.4354 211.791 50.4666 211.828 50.4666C211.866 50.4666 211.897 50.4354 211.897 50.3979C211.897 50.3604 211.866 50.3291 211.828 50.3291Z" fill="white"/>
<path d="M210.938 50.1924C210.888 50.1924 210.85 50.2299 210.85 50.2799C210.85 50.3299 210.888 50.3674 210.938 50.3674C210.988 50.3674 211.025 50.3299 211.025 50.2799C211.025 50.2299 210.988 50.1924 210.938 50.1924Z" fill="white"/>
<path d="M209.94 50.1307C209.94 50.1869 209.984 50.2369 210.046 50.2369C210.109 50.2369 210.153 50.1869 210.153 50.1307C210.153 50.0744 210.103 50.0244 210.046 50.0244C209.99 50.0244 209.94 50.0744 209.94 50.1307Z" fill="white"/>
<path d="M209.168 49.8252C209.099 49.8252 209.049 49.8814 209.049 49.9439C209.049 50.0064 209.106 50.0627 209.168 50.0627C209.231 50.0627 209.287 50.0064 209.287 49.9439C209.287 49.8814 209.231 49.8252 209.168 49.8252Z" fill="white"/>
<path d="M208.289 49.5938C208.214 49.5938 208.158 49.65 208.158 49.725C208.158 49.8 208.214 49.8563 208.289 49.8563C208.364 49.8563 208.42 49.8 208.42 49.725C208.42 49.65 208.364 49.5938 208.289 49.5938Z" fill="white"/>
<path d="M207.423 49.3379C207.342 49.3379 207.279 49.4004 207.279 49.4816C207.279 49.5629 207.342 49.6254 207.423 49.6254C207.504 49.6254 207.567 49.5629 207.567 49.4816C207.567 49.4004 207.504 49.3379 207.423 49.3379Z" fill="white"/>
<path d="M206.569 49.0459C206.482 49.0459 206.413 49.1146 206.413 49.2021C206.413 49.2896 206.482 49.3584 206.569 49.3584C206.657 49.3584 206.726 49.2896 206.726 49.2021C206.726 49.1146 206.657 49.0459 206.569 49.0459Z" fill="white"/>
<path d="M205.721 49.0455C205.815 49.0455 205.89 48.9707 205.89 48.8772C205.89 48.7838 205.815 48.709 205.721 48.709C205.628 48.709 205.553 48.7838 205.553 48.8772C205.553 48.9707 205.628 49.0455 205.721 49.0455Z" fill="white"/>
<path d="M204.886 48.3613C204.787 48.3613 204.712 48.4423 204.712 48.5358C204.712 48.6293 204.793 48.7103 204.886 48.7103C204.98 48.7103 205.061 48.6293 205.061 48.5358C205.061 48.4423 204.98 48.3613 204.886 48.3613Z" fill="white"/>
<path d="M204.07 47.9746C203.964 47.9746 203.883 48.0618 203.883 48.1615C203.883 48.2612 203.971 48.3485 204.07 48.3485C204.17 48.3485 204.257 48.2612 204.257 48.1615C204.257 48.0618 204.17 47.9746 204.07 47.9746Z" fill="white"/>
<path d="M203.261 47.5625C203.155 47.5625 203.067 47.6497 203.067 47.7557C203.067 47.8616 203.155 47.9488 203.261 47.9488C203.366 47.9488 203.454 47.8616 203.454 47.7557C203.454 47.6497 203.366 47.5625 203.261 47.5625Z" fill="white"/>
<path d="M202.475 47.1201C202.369 47.1201 202.275 47.2074 202.275 47.3195C202.275 47.4317 202.363 47.5189 202.475 47.5189C202.587 47.5189 202.674 47.4317 202.674 47.3195C202.674 47.2074 202.587 47.1201 202.475 47.1201Z" fill="white"/>
<path d="M201.702 47.0521C201.814 47.0521 201.902 46.9649 201.902 46.8527C201.902 46.7406 201.814 46.6533 201.702 46.6533C201.59 46.6533 201.503 46.7406 201.503 46.8527C201.503 46.9649 201.59 47.0521 201.702 47.0521Z" fill="white"/>
<path d="M200.949 46.1553C200.836 46.1553 200.743 46.2487 200.743 46.3609C200.743 46.4731 200.836 46.5665 200.949 46.5665C201.061 46.5665 201.154 46.4731 201.154 46.3609C201.154 46.2487 201.061 46.1553 200.949 46.1553Z" fill="white"/>
<path d="M200.213 45.625C200.101 45.625 200.008 45.7185 200.008 45.8306C200.008 45.9428 200.101 46.0363 200.213 46.0363C200.326 46.0363 200.419 45.9428 200.419 45.8306C200.419 45.7185 200.326 45.625 200.213 45.625Z" fill="white"/>
<path d="M199.708 45.289C199.708 45.1706 199.615 45.0771 199.497 45.0771C199.378 45.0771 199.285 45.1706 199.285 45.289C199.285 45.4074 199.378 45.5009 199.497 45.5009C199.615 45.5009 199.708 45.4074 199.708 45.289Z" fill="white"/>
<path d="M198.805 44.4971C198.687 44.4971 198.587 44.5968 198.587 44.7152C198.587 44.8336 198.687 44.9333 198.805 44.9333C198.923 44.9333 199.023 44.8336 199.023 44.7152C199.023 44.5968 198.923 44.4971 198.805 44.4971Z" fill="white"/>
<path d="M198.132 43.8936C198.014 43.8936 197.914 43.9933 197.914 44.1116C197.914 44.23 198.014 44.3297 198.132 44.3297C198.251 44.3297 198.35 44.23 198.35 44.1116C198.35 43.9933 198.251 43.8936 198.132 43.8936Z" fill="white"/>
<path d="M197.484 43.2637C197.359 43.2637 197.259 43.3634 197.259 43.488C197.259 43.6126 197.359 43.7123 197.484 43.7123C197.608 43.7123 197.708 43.6126 197.708 43.488C197.708 43.3634 197.608 43.2637 197.484 43.2637Z" fill="white"/>
<path d="M196.861 42.6152C196.736 42.6152 196.643 42.7149 196.643 42.8333C196.643 42.9517 196.742 43.0514 196.861 43.0514C196.979 43.0514 197.079 42.9517 197.079 42.8333C197.079 42.7149 196.979 42.6152 196.861 42.6152Z" fill="white"/>
<path d="M196.475 42.1673C196.475 42.0489 196.375 41.9492 196.257 41.9492C196.138 41.9492 196.039 42.0489 196.039 42.1673C196.039 42.2857 196.138 42.3854 196.257 42.3854C196.375 42.3854 196.475 42.2857 196.475 42.1673Z" fill="white"/>
<path d="M195.683 41.2568C195.565 41.2568 195.471 41.3503 195.471 41.4687C195.471 41.5871 195.565 41.6806 195.683 41.6806C195.801 41.6806 195.895 41.5871 195.895 41.4687C195.895 41.3503 195.801 41.2568 195.683 41.2568Z" fill="white"/>
<path d="M195.135 40.5459C195.016 40.5459 194.923 40.6394 194.923 40.7515C194.923 40.8637 195.016 40.9634 195.135 40.9634C195.253 40.9634 195.34 40.8699 195.34 40.7515C195.34 40.6331 195.247 40.5459 195.135 40.5459Z" fill="white"/>
<path d="M194.817 40.023C194.817 39.9109 194.724 39.8174 194.611 39.8174C194.499 39.8174 194.406 39.9109 194.406 40.023C194.406 40.1352 194.499 40.2286 194.611 40.2286C194.724 40.2286 194.817 40.1352 194.817 40.023Z" fill="white"/>
<path d="M194.119 39.0693C194.007 39.0693 193.919 39.1566 193.919 39.2687C193.919 39.3809 194.007 39.4681 194.119 39.4681C194.231 39.4681 194.318 39.3809 194.318 39.2687C194.318 39.1566 194.231 39.0693 194.119 39.0693Z" fill="white"/>
<path d="M193.652 38.6957C193.762 38.6957 193.851 38.6064 193.851 38.4963C193.851 38.3861 193.762 38.2969 193.652 38.2969C193.541 38.2969 193.452 38.3861 193.452 38.4963C193.452 38.6064 193.541 38.6957 193.652 38.6957Z" fill="white"/>
<path d="M193.409 37.7107C193.409 37.6048 193.321 37.5176 193.215 37.5176C193.109 37.5176 193.022 37.6048 193.022 37.7107C193.022 37.8167 193.109 37.9039 193.215 37.9039C193.321 37.9039 193.409 37.8167 193.409 37.7107Z" fill="white"/>
<path d="M192.804 36.7207C192.698 36.7207 192.617 36.8079 192.617 36.9076C192.617 37.0073 192.704 37.0946 192.804 37.0946C192.904 37.0946 192.991 37.0073 192.991 36.9076C192.991 36.8079 192.904 36.7207 192.804 36.7207Z" fill="white"/>
<path d="M192.43 35.9102C192.331 35.9102 192.25 35.9912 192.25 36.0909C192.25 36.1906 192.331 36.2716 192.43 36.2716C192.53 36.2716 192.611 36.1906 192.611 36.0909C192.611 35.9912 192.53 35.9102 192.43 35.9102Z" fill="white"/>
<path d="M192.082 35.4244C192.175 35.4244 192.25 35.3496 192.25 35.2561C192.25 35.1627 192.175 35.0879 192.082 35.0879C191.988 35.0879 191.913 35.1627 191.913 35.2561C191.913 35.3496 191.988 35.4244 192.082 35.4244Z" fill="white"/>
<path d="M191.77 34.2598C191.683 34.2598 191.614 34.3285 191.614 34.416C191.614 34.5035 191.683 34.5723 191.77 34.5723C191.858 34.5723 191.927 34.5035 191.927 34.416C191.927 34.3285 191.858 34.2598 191.77 34.2598Z" fill="white"/>
<path d="M191.49 33.4121C191.409 33.4121 191.346 33.4746 191.346 33.5559C191.346 33.6371 191.409 33.6996 191.49 33.6996C191.571 33.6996 191.634 33.6371 191.634 33.5559C191.634 33.4746 191.571 33.4121 191.49 33.4121Z" fill="white"/>
<path d="M191.241 32.8211C191.313 32.8211 191.372 32.7623 191.372 32.6898C191.372 32.6174 191.313 32.5586 191.241 32.5586C191.168 32.5586 191.109 32.6174 191.109 32.6898C191.109 32.7623 191.168 32.8211 191.241 32.8211Z" fill="white"/>
<path d="M190.904 31.817C190.904 31.8857 190.96 31.9357 191.023 31.9357C191.085 31.9357 191.141 31.8795 191.141 31.817C191.141 31.7545 191.085 31.6982 191.023 31.6982C190.96 31.6982 190.904 31.7545 190.904 31.817Z" fill="white"/>
<path d="M190.942 30.9314C190.942 30.8752 190.892 30.8252 190.836 30.8252C190.779 30.8252 190.729 30.8752 190.729 30.9314C190.729 30.9877 190.779 31.0377 190.836 31.0377C190.892 31.0377 190.942 30.9877 190.942 30.9314Z" fill="white"/>
<path d="M190.774 30.0475C190.774 29.9975 190.736 29.96 190.686 29.96C190.636 29.96 190.599 29.9975 190.599 30.0475C190.599 30.0975 190.636 30.135 190.686 30.135C190.736 30.135 190.774 30.0975 190.774 30.0475Z" fill="white"/>
<path d="M190.636 29.1498C190.636 29.1123 190.605 29.0811 190.567 29.0811C190.53 29.0811 190.499 29.1123 190.499 29.1498C190.499 29.1873 190.53 29.2186 190.567 29.2186C190.605 29.2186 190.636 29.1873 190.636 29.1498Z" fill="white"/>
<path d="M190.53 28.2521C190.53 28.2521 190.511 28.2021 190.48 28.2021C190.449 28.2021 190.43 28.2209 190.43 28.2521C190.43 28.2834 190.449 28.3021 190.48 28.3021C190.511 28.3021 190.53 28.2834 190.53 28.2521Z" fill="white"/>
<path d="M190.437 27.3232C190.437 27.3232 190.411 27.336 190.411 27.3487C190.411 27.3614 190.424 27.3742 190.437 27.3742C190.45 27.3742 190.462 27.3614 190.462 27.3487C190.462 27.336 190.45 27.3232 190.437 27.3232Z" fill="white"/>
<path d="M214.501 46.0303C225.294 46.0303 234.074 37.2505 234.074 26.458H232.279C232.279 36.2597 224.303 44.2357 214.501 44.2357V46.0303Z" fill="white"/>
<path d="M230.285 11.8144L227.069 15.0297L225.649 13.609L228.864 10.3937L229.113 10.1445C225.231 6.66744 220.115 4.54883 214.507 4.54883V6.34342C219.125 6.34342 223.374 7.90745 226.777 10.5308L223.686 13.6215C223.63 13.6776 223.586 13.7399 223.543 13.8022C220.994 11.9889 217.878 10.9109 214.514 10.9109V11.3595C217.785 11.3595 220.82 12.4064 223.3 14.1761C222.901 14.9737 223.025 15.9644 223.686 16.6312L224.054 16.9988C224.739 17.6842 225.767 17.7964 226.577 17.354C228.515 19.9025 229.674 23.0805 229.674 26.5201H230.123C230.123 22.9808 228.939 19.7156 226.945 17.0985C226.982 17.0673 227.026 17.0362 227.063 16.9988L230.185 13.877C232.958 17.3228 234.622 21.7034 234.622 26.4578H236.416C236.416 20.7064 234.185 15.4721 230.546 11.5589L230.285 11.8207V11.8144ZM225.325 16.1077C224.901 16.1077 224.552 15.765 224.552 15.3351C224.552 14.9051 224.895 14.5624 225.325 14.5624C225.755 14.5624 226.097 14.9051 226.097 15.3351C226.097 15.765 225.755 16.1077 225.325 16.1077Z" fill="white"/>
<path d="M201.129 26.5201C201.129 19.1423 207.13 13.1479 214.501 13.1479V12.6992C206.881 12.6992 200.681 18.8993 200.681 26.5201H201.129Z" fill="white"/>
<path d="M214.501 39.9488V40.3974C222.153 40.3974 228.378 34.1724 228.378 26.5205H227.93C227.93 33.9232 221.904 39.9488 214.501 39.9488Z" fill="white"/>
<path d="M214.962 43.5371V43.6493C224.203 43.6493 231.718 36.1344 231.718 26.8936H231.606C231.606 36.0721 224.141 43.5371 214.962 43.5371Z" fill="white"/>
<path d="M214.551 40.8388V40.9509C222.527 40.9509 229.02 34.4642 229.02 26.4883H228.908C228.908 34.4019 222.471 40.845 214.551 40.845V40.8388Z" fill="white"/>
<path d="M190.418 27.0866C190.755 27.0866 191.028 26.8132 191.028 26.4759C191.028 26.1386 190.755 25.8652 190.418 25.8652C190.08 25.8652 189.807 26.1386 189.807 26.4759C189.807 26.8132 190.08 27.0866 190.418 27.0866Z" fill="white"/>
<path d="M214.614 49.8809C214.277 49.8809 214.003 50.155 214.003 50.4915C214.003 50.828 214.277 51.1022 214.614 51.1022C214.95 51.1022 215.224 50.828 215.224 50.4915C215.224 50.155 214.95 49.8809 214.614 49.8809Z" fill="white"/>
<path d="M220.446 20.9867C220.87 20.9867 221.219 20.644 221.219 20.2141C221.219 19.7841 220.876 19.4414 220.446 19.4414C220.016 19.4414 219.673 19.7841 219.673 20.2141C219.673 20.644 220.016 20.9867 220.446 20.9867Z" fill="white"/>
<path d="M215.766 46.5977H215.224V48.305H215.766V46.5977Z" fill="white"/>
<path d="M217.528 46.4049L216.988 46.4521L217.137 48.153L217.677 48.1058L217.528 46.4049Z" fill="white"/>
<path d="M219.244 46.0709L218.71 46.165L219.007 47.8465L219.541 47.7523L219.244 46.0709Z" fill="white"/>
<path d="M220.941 45.5892L220.417 45.7295L220.859 47.3787L221.383 47.2384L220.941 45.5892Z" fill="white"/>
<path d="M222.585 44.9552L222.076 45.1406L222.66 46.745L223.169 46.5596L222.585 44.9552Z" fill="white"/>
<path d="M224.167 44.1703L223.675 44.3994L224.397 45.9468L224.888 45.7177L224.167 44.1703Z" fill="white"/>
<path d="M225.674 43.2719L225.205 43.543L226.058 45.0216L226.528 44.7505L225.674 43.2719Z" fill="white"/>
<path d="M227.098 42.2174L226.654 42.5283L227.633 43.9269L228.077 43.616L227.098 42.2174Z" fill="white"/>
<path d="M228.425 41.0793L228.009 41.4277L229.107 42.7356L229.522 42.3872L228.425 41.0793Z" fill="white"/>
<path d="M229.645 39.8032L229.261 40.1865L230.469 41.3938L230.852 41.0105L229.645 39.8032Z" fill="white"/>
<path d="M230.751 38.4255L230.403 38.8408L231.711 39.9383L232.059 39.523L230.751 38.4255Z" fill="white"/>
<path d="M231.743 36.9778L231.432 37.4219L232.831 38.4012L233.142 37.9571L231.743 36.9778Z" fill="white"/>
<path d="M232.586 35.428L232.315 35.8975L233.794 36.7511L234.065 36.2816L232.586 35.428Z" fill="white"/>
<path d="M233.296 33.8173L233.067 34.3086L234.615 35.0302L234.844 34.5388L233.296 33.8173Z" fill="white"/>
<path d="M233.884 32.1607L233.698 32.6699L235.302 33.2553L235.488 32.746L233.884 32.1607Z" fill="white"/>
<path d="M234.283 30.4363L234.143 30.96L235.792 31.4016L235.933 30.8779L234.283 30.4363Z" fill="white"/>
<path d="M234.562 28.7005L234.468 29.2344L236.15 29.5309L236.244 28.997L234.562 28.7005Z" fill="white"/>
<path d="M234.695 26.9473L234.648 27.4873L236.349 27.6361L236.396 27.0961L234.695 26.9473Z" fill="white"/>
<path d="M389.756 112.392L363.497 80.8383V27.923C363.497 27.3391 363.019 26.8613 362.435 26.8613H261.761V28.9847H361.374V81.2205C361.374 81.4647 361.459 81.7089 361.618 81.9L387.877 113.454V216.269L360.227 247.727H4.25206L47.791 192.551H65.8669C66.4506 192.551 66.9283 192.073 66.9283 191.489V80.6153C66.9283 80.0314 66.4506 79.5536 65.8669 79.5536H48.343V28.9847H105.362L117.664 41.5553C117.865 41.757 118.141 41.8738 118.417 41.8738H138.319C138.626 41.8738 138.934 41.7358 139.136 41.4916L149.654 28.9847H172.018V26.8613H149.156C148.848 26.8613 148.54 26.9993 148.338 27.2435L137.82 39.7504H118.863L106.561 27.1798C106.36 26.9781 106.084 26.8613 105.808 26.8613H47.2816C46.6978 26.8613 46.2202 27.3391 46.2202 27.923V80.6153C46.2202 81.1993 46.6978 81.677 47.2816 81.677H64.8054V190.438H47.2816C46.9525 190.438 46.6447 190.586 46.4431 190.841L1.22703 248.141C0.972294 248.46 0.929821 248.895 1.11026 249.267C1.2907 249.638 1.66222 249.861 2.06555 249.861H360.705C361.013 249.861 361.3 249.734 361.501 249.5L389.735 217.384C389.904 217.193 390 216.938 390 216.683V113.082C390 112.838 389.915 112.594 389.756 112.403V112.392Z" fill="white"/>
</svg>
