<svg width="385" height="248" viewBox="0 0 385 248" fill="none" xmlns="http://www.w3.org/2000/svg">
<path d="M165.424 26H4.11853C3.53677 26 3.06079 26.4757 3.06079 27.057V80.1206C3.06079 80.3637 3.14539 80.6068 3.30405 80.7865L29.134 112.202V214.566L1.26262 246.245C0.987606 246.552 0.924106 246.996 1.09334 247.376C1.26258 247.757 1.6434 248 2.05592 248H355.806C356.113 248 356.399 247.873 356.6 247.641L384.736 215.665C384.905 215.475 385 215.221 385 214.967V73.7783C385 73.5352 384.915 73.2921 384.757 73.1018L345.652 26.3805C345.451 26.1374 345.155 26 344.838 26H165.424Z" fill="white" fill-opacity="0.1"/>
<path d="M203.393 7.4583C203.393 6.7604 202.826 6.19336 202.128 6.19336C201.43 6.19336 200.863 6.7604 200.863 7.4583C200.863 8.15619 201.43 8.72323 202.128 8.72323C202.826 8.72323 203.393 8.15619 203.393 7.4583Z" fill="white"/>
<path d="M197.641 9.31517C198.314 9.13446 198.719 8.43657 198.538 7.7636C198.358 7.09062 197.66 6.6856 196.987 6.8663C196.314 7.04701 195.909 7.7449 196.089 8.41787C196.27 9.09084 196.968 9.49587 197.641 9.31517Z" fill="white"/>
<path d="M193.466 11.0477C194.07 10.6987 194.282 9.91982 193.927 9.3154C193.578 8.71097 192.805 8.49911 192.195 8.85429C191.59 9.20323 191.379 9.9759 191.734 10.5866C192.083 11.191 192.862 11.4029 193.466 11.0477Z" fill="white"/>
<path d="M188.98 14.1646C189.678 14.1646 190.245 13.5983 190.245 12.8997C190.245 12.2011 189.678 11.6348 188.98 11.6348C188.281 11.6348 187.715 12.2011 187.715 12.8997C187.715 13.5983 188.281 14.1646 188.98 14.1646Z" fill="white"/>
<path d="M186.662 15.6533C186.057 15.3043 185.278 15.51 184.929 16.1144C184.58 16.7188 184.786 17.4977 185.39 17.8467C185.995 18.1956 186.774 17.99 187.123 17.3856C187.472 16.7811 187.266 16.0022 186.662 15.6533Z" fill="white"/>
<path d="M182.948 20.9056C182.767 21.5848 183.166 22.2765 183.845 22.4572C184.524 22.6379 185.216 22.2391 185.397 21.5599C185.577 20.8807 185.179 20.189 184.499 20.0083C183.82 19.8276 183.128 20.2264 182.948 20.9056Z" fill="white"/>
<path d="M182.443 26.0404C182.443 26.6947 182.973 27.2243 183.627 27.2243C184.281 27.2243 184.811 26.6947 184.811 26.0404C184.811 25.3861 184.281 24.8564 183.627 24.8564C182.973 24.8564 182.443 25.3861 182.443 26.0404Z" fill="white"/>
<path d="M185.39 30.5207C185.21 29.8415 184.512 29.4427 183.839 29.6234C183.166 29.8041 182.761 30.502 182.942 31.175C183.122 31.8542 183.82 32.253 184.493 32.0723C185.166 31.8916 185.571 31.1937 185.39 30.5207Z" fill="white"/>
<path d="M186.655 36.4276C187.26 36.0786 187.472 35.3059 187.117 34.6953C186.768 34.0909 185.995 33.879 185.384 34.2342C184.78 34.5831 184.568 35.3558 184.923 35.9664C185.272 36.5709 186.051 36.7827 186.655 36.4276Z" fill="white"/>
<path d="M212.515 10.5877C212.864 9.98327 212.658 9.20437 212.054 8.85542C211.449 8.50647 210.67 8.71211 210.321 9.31653C209.972 9.92096 210.178 10.6999 210.782 11.0488C211.387 11.3978 212.166 11.1921 212.515 10.5877Z" fill="white"/>
<path d="M208.159 8.42512C208.34 7.75215 207.941 7.05425 207.262 6.87355C206.589 6.69284 205.891 7.09164 205.71 7.77084C205.53 8.44381 205.929 9.14171 206.608 9.32242C207.287 9.50312 207.979 9.10432 208.159 8.42512Z" fill="white"/>
<path d="M224.622 31.4683C224.56 31.4558 224.504 31.4932 224.485 31.5493C221.955 41.8682 212.758 49.0777 202.115 49.0777C196.22 49.0777 190.837 46.8469 186.761 43.1954C186.892 42.996 186.973 42.753 186.973 42.4975C186.973 42.1984 186.867 41.9305 186.693 41.7124L191.584 36.8209C194.258 39.5876 198.003 41.3136 202.153 41.3136C206.078 41.3136 209.642 39.7745 212.272 37.2633L213.138 38.1295C210.209 40.8089 206.321 42.4103 202.109 42.4103V43.7562C206.689 43.7562 210.914 42.0115 214.085 39.0828L214.634 39.6312C211.331 42.7219 206.907 44.5663 202.109 44.5663V48.5979C212.253 48.5979 221.046 41.8433 223.681 32.1039L219.762 31.1567C218.977 33.9857 217.556 36.4969 215.68 38.5656L215.138 38.0235C216.933 36.0607 218.304 33.6741 219.076 30.9885L217.768 30.6707C217.058 33.1071 215.818 35.2756 214.191 37.0701L213.3 36.1791C214.821 34.4094 215.923 32.2783 216.466 29.9292L220.485 30.7891C221.295 30.9636 222.049 30.3467 222.049 29.5241V22.5888C222.049 21.7663 221.289 21.1494 220.485 21.3239L216.466 22.1838C215.88 19.6352 214.634 17.3483 212.914 15.4977L217.699 10.7121C217.917 10.8866 218.185 10.9925 218.485 10.9925C218.784 10.9925 219.07 10.8803 219.288 10.6996C221.743 13.4476 223.569 16.8187 224.485 20.601C224.498 20.6634 224.56 20.7007 224.622 20.682C224.685 20.6696 224.722 20.6073 224.703 20.545C223.775 16.719 221.93 13.3167 219.444 10.5376C219.631 10.3195 219.749 10.0329 219.749 9.72134C219.749 9.02344 219.182 8.4564 218.485 8.4564C218.173 8.4564 217.893 8.57479 217.674 8.7555C213.518 5.023 208.041 2.80469 202.109 2.80469C189.653 2.80469 179.458 12.6438 178.879 24.9629C178.904 24.9629 178.935 24.9567 178.96 24.9567C179.01 24.9567 179.053 24.9629 179.097 24.9691C179.67 12.7746 189.765 3.02901 202.103 3.02901C207.972 3.02901 213.394 5.2224 217.506 8.91751C217.326 9.1356 217.207 9.41601 217.207 9.72134C217.207 9.95812 217.276 10.1824 217.394 10.3694L212.596 15.1674C209.929 12.4693 206.234 10.7931 202.14 10.7931C194.021 10.7931 187.441 17.3733 187.441 25.4925H191.946C191.946 19.872 196.519 15.2983 202.14 15.2983C204.981 15.2983 207.555 16.4697 209.406 18.3516L207.817 19.9405C206.327 18.551 204.333 17.6973 202.14 17.6973C197.535 17.6973 193.79 21.4423 193.79 26.0471C193.79 28.2405 194.644 30.2345 196.033 31.7238L194.457 33.3003C192.893 31.5057 191.946 29.169 191.946 26.6142H187.441C187.441 30.4214 188.886 33.886 191.26 36.4969L186.344 41.4133C186.151 41.3011 185.933 41.2264 185.696 41.2264C185.434 41.2264 185.191 41.3074 184.992 41.4382C181.546 37.606 179.359 32.6211 179.103 27.1376C179.06 27.1376 179.01 27.15 178.966 27.15C178.935 27.15 178.91 27.15 178.885 27.1438C179.147 32.6771 181.346 37.712 184.823 41.5815C184.587 41.8121 184.431 42.1361 184.431 42.4913C184.431 43.1892 184.998 43.7562 185.696 43.7562C186.057 43.7562 186.381 43.6067 186.612 43.3637C190.731 47.0526 196.158 49.2958 202.109 49.2958C212.852 49.2958 222.142 42.0177 224.697 31.5991C224.71 31.5368 224.672 31.4807 224.616 31.4621L224.622 31.4683ZM203.461 47.9935H202.788V45.2517H203.461V47.9935ZM204.701 47.8501L204.464 45.1146L205.131 45.0586L205.368 47.7941L204.701 47.8501ZM206.589 47.5448L206.116 44.8405L206.776 44.7221L207.25 47.4264L206.589 47.5448ZM208.446 47.0712L207.736 44.423L208.384 44.2485L209.094 46.8968L208.446 47.0712ZM210.253 46.4419L209.312 43.8622L209.942 43.6316L210.882 46.2113L210.253 46.4419ZM211.998 45.6568L210.839 43.1705L211.449 42.8839L212.608 45.3701L211.998 45.6568ZM213.668 44.7221L212.297 42.348L212.876 42.0115L214.247 44.3856L213.668 44.7221ZM215.251 43.6441L213.674 41.3946L214.222 41.0083L215.799 43.2577L215.251 43.6441ZM220.447 31.8359L223.083 32.5961L222.896 33.2442L220.26 32.484L220.447 31.8359ZM220.042 33.132L222.578 34.1789L222.323 34.802L219.787 33.7551L220.042 33.132ZM219.382 34.6088L221.831 35.8488L221.525 36.447L219.076 35.207L219.382 34.6088ZM218.609 36.0171L220.859 37.5936L220.472 38.1419L218.223 36.5654L218.609 36.0171ZM217.681 37.3692L219.781 39.1327L219.351 39.6499L217.251 37.8864L217.681 37.3692ZM216.634 38.684L218.572 40.6219L218.098 41.0955L216.553 39.5502L216.16 39.1576L216.216 39.1015L216.634 38.684ZM215.481 39.8991L216.004 40.5222L217.244 41.999L216.727 42.429L214.964 40.3291L215.163 40.1608L215.481 39.8929V39.8991ZM219.058 23.8413C220.279 23.8413 221.27 24.832 221.27 26.0534C221.27 27.2747 220.279 28.2654 219.058 28.2654C217.836 28.2654 216.846 27.2747 216.846 26.0534C216.846 24.832 217.836 23.8413 219.058 23.8413ZM202.115 14.3574C201.417 14.3574 200.85 13.7903 200.85 13.0924C200.85 12.3945 201.417 11.8275 202.115 11.8275C202.813 11.8275 203.38 12.3945 203.38 13.0924C203.38 13.7903 202.813 14.3574 202.115 14.3574ZM202.115 40.3104C201.417 40.3104 200.85 39.7433 200.85 39.0454C200.85 38.3475 201.417 37.7805 202.115 37.7805C202.813 37.7805 203.38 38.3475 203.38 39.0454C203.38 39.7433 202.813 40.3104 202.115 40.3104ZM209.723 18.6818C210.839 19.9218 211.655 21.4423 212.06 23.1185L210.11 23.5359C209.717 22.2897 209.032 21.1743 208.147 20.2583L209.723 18.6818ZM194.245 26.0534C194.245 21.6977 197.791 18.1522 202.146 18.1522C205.654 18.1522 208.639 20.4577 209.667 23.6294L207.237 24.1466C206.676 24.265 206.265 24.7448 206.221 25.3056H213.655C214.067 25.3056 214.403 25.6421 214.403 26.0534C214.403 26.4646 214.067 26.8011 213.655 26.8011H206.221C206.265 27.3681 206.676 27.8417 207.237 27.9601L209.667 28.4773C208.639 31.649 205.661 33.9545 202.146 33.9545C197.791 33.9545 194.245 30.409 194.245 26.0534ZM196.351 32.054C197.853 33.5059 199.897 34.4094 202.146 34.4094C205.873 34.4094 209.038 31.9543 210.11 28.577L212.06 28.9945C210.988 33.4747 206.951 36.8147 202.153 36.8147C199.249 36.8147 196.632 35.5933 194.775 33.643L196.357 32.0602L196.351 32.054Z" fill="white"/>
<path d="M225.264 23.8281C224.043 23.8281 223.052 24.8189 223.052 26.0402C223.052 27.2615 224.043 28.2523 225.264 28.2523C226.485 28.2523 227.476 27.2615 227.476 26.0402C227.476 24.8189 226.485 23.8281 225.264 23.8281ZM225.264 27.1494C224.653 27.1494 224.155 26.6509 224.155 26.0402C224.155 25.4295 224.653 24.9311 225.264 24.9311C225.875 24.9311 226.373 25.4233 226.373 26.0402C226.373 26.6571 225.875 27.1494 225.264 27.1494Z" fill="white"/>
<path d="M219.089 27.1497C219.7 27.1497 220.198 26.6512 220.198 26.0406C220.198 25.4299 219.7 24.9314 219.089 24.9314C218.478 24.9314 217.98 25.4237 217.98 26.0406C217.98 26.6575 218.478 27.1497 219.089 27.1497Z" fill="white"/>
<path d="M202.159 28.2591C203.118 28.2591 203.929 27.6422 204.234 26.7948H202.932C202.732 27.0129 202.439 27.1562 202.121 27.1562C201.511 27.1562 201.012 26.6577 201.012 26.047C201.012 25.4364 201.511 24.9379 202.121 24.9379C202.445 24.9379 202.732 25.075 202.932 25.2993H204.234C203.929 24.4456 203.118 23.835 202.159 23.835C200.938 23.835 199.947 24.8257 199.947 26.047C199.947 27.2684 200.938 28.2591 202.159 28.2591Z" fill="white"/>
<path d="M228.174 27.399C228.081 27.399 228.006 27.4676 228 27.5611C228 27.6545 228.068 27.7293 228.155 27.7355H228.162C228.249 27.7355 228.33 27.6607 228.33 27.5735C228.33 27.48 228.261 27.399 228.168 27.3928L228.174 27.399Z" fill="white"/>
<path d="M184.381 45.1517C184.319 45.2202 184.325 45.3262 184.387 45.3885C184.418 45.4196 184.462 45.4321 184.499 45.4321C184.543 45.4321 184.587 45.4134 184.624 45.376C184.686 45.3075 184.68 45.2015 184.618 45.1392C184.549 45.0769 184.443 45.0832 184.381 45.1455V45.1517Z" fill="white"/>
<path d="M182.524 43.2197C182.456 43.282 182.449 43.3879 182.506 43.4565C182.543 43.4939 182.587 43.5126 182.63 43.5126C182.668 43.5126 182.711 43.5001 182.742 43.4752C182.817 43.4129 182.817 43.3069 182.761 43.2322C182.699 43.1636 182.593 43.1574 182.524 43.2197Z" fill="white"/>
<path d="M180.879 41.1077C180.804 41.1638 180.786 41.2697 180.842 41.3445C180.873 41.3881 180.929 41.413 180.979 41.413C181.016 41.413 181.054 41.4068 181.079 41.3819C181.153 41.3258 181.172 41.2261 181.122 41.1513C181.066 41.0765 180.96 41.0578 180.892 41.1077H180.879Z" fill="white"/>
<path d="M179.452 38.8464C179.371 38.8901 179.34 38.996 179.39 39.077C179.421 39.1331 179.477 39.1642 179.533 39.1642C179.564 39.1642 179.589 39.1642 179.62 39.1393C179.701 39.0957 179.726 38.9898 179.683 38.9087C179.639 38.8277 179.533 38.8028 179.452 38.8464Z" fill="white"/>
<path d="M227.912 30.0659C227.825 30.0534 227.738 30.1158 227.719 30.203C227.707 30.2965 227.769 30.3837 227.862 30.3962C227.862 30.3962 227.875 30.3962 227.887 30.3962C227.968 30.3962 228.043 30.3339 228.056 30.2528C228.074 30.1594 228.012 30.0721 227.918 30.0597L227.912 30.0659Z" fill="white"/>
<path d="M211.898 50.1433C211.811 50.1807 211.773 50.2742 211.811 50.3614C211.836 50.4237 211.898 50.4674 211.967 50.4674C211.985 50.4674 212.004 50.4673 212.029 50.4549C212.116 50.4237 212.154 50.324 212.116 50.2368C212.085 50.1496 211.985 50.1059 211.904 50.1433H211.898Z" fill="white"/>
<path d="M216.584 47.6507C216.509 47.7068 216.49 47.8065 216.54 47.8812C216.577 47.9311 216.627 47.956 216.677 47.956C216.708 47.956 216.746 47.9498 216.771 47.9249C216.852 47.875 216.87 47.7691 216.82 47.6943C216.764 47.6195 216.665 47.5946 216.584 47.6507Z" fill="white"/>
<path d="M186.425 46.8843C186.369 46.959 186.387 47.065 186.456 47.1211C186.487 47.146 186.524 47.1522 186.562 47.1522C186.612 47.1522 186.662 47.1273 186.699 47.0837C186.755 47.0089 186.736 46.903 186.662 46.8531C186.587 46.797 186.481 46.8157 186.431 46.8843H186.425Z" fill="white"/>
<path d="M214.303 49.015C214.222 49.0586 214.191 49.1645 214.235 49.2456C214.266 49.3016 214.322 49.3328 214.384 49.3328C214.409 49.3328 214.44 49.3328 214.465 49.3141C214.546 49.2705 214.577 49.1645 214.534 49.0835C214.49 49.0025 214.391 48.9714 214.303 49.0088V49.015Z" fill="white"/>
<path d="M218.721 46.0554C218.647 46.1115 218.634 46.2236 218.696 46.2922C218.728 46.3296 218.777 46.3483 218.821 46.3483C218.865 46.3483 218.902 46.3358 218.933 46.3109C219.008 46.2486 219.014 46.1426 218.952 46.0741C218.896 46.0055 218.784 45.9931 218.721 46.0492V46.0554Z" fill="white"/>
<path d="M224.211 40.042C224.136 39.9859 224.03 40.0108 223.98 40.0918C223.924 40.1666 223.955 40.2725 224.03 40.3224C224.055 40.3411 224.086 40.3473 224.117 40.3473C224.174 40.3473 224.23 40.3224 224.261 40.2663C224.311 40.1915 224.286 40.0856 224.205 40.0357L224.211 40.042Z" fill="white"/>
<path d="M220.672 44.2477C220.603 44.3162 220.609 44.4222 220.672 44.4845C220.709 44.5156 220.746 44.5343 220.79 44.5343C220.827 44.5343 220.877 44.5156 220.908 44.4845C220.977 44.4159 220.977 44.31 220.908 44.2477C220.84 44.1792 220.734 44.1792 220.672 44.2477Z" fill="white"/>
<path d="M222.429 42.2546C222.373 42.3231 222.385 42.4353 222.46 42.4914C222.485 42.5163 222.529 42.5288 222.566 42.5288C222.616 42.5288 222.666 42.5038 222.697 42.4664C222.753 42.3917 222.74 42.2857 222.672 42.2297C222.597 42.1736 222.491 42.186 222.435 42.2546H222.429Z" fill="white"/>
<path d="M209.387 51.0158C209.3 51.0407 209.25 51.1342 209.275 51.2277C209.3 51.3024 209.362 51.346 209.437 51.346C209.449 51.346 209.468 51.3461 209.48 51.3398C209.568 51.3149 209.624 51.2214 209.599 51.1342C209.574 51.047 209.48 50.9909 209.393 51.0158H209.387Z" fill="white"/>
<path d="M191.21 49.5888C191.123 49.5515 191.03 49.5888 190.986 49.6761C190.949 49.7571 190.986 49.8568 191.067 49.8942C191.092 49.9066 191.117 49.9129 191.142 49.9129C191.204 49.9129 191.26 49.8755 191.291 49.8132C191.329 49.7259 191.291 49.6325 191.21 49.5888Z" fill="white"/>
<path d="M206.788 51.6191C206.701 51.6378 206.639 51.7251 206.651 51.8185C206.663 51.8995 206.738 51.9556 206.819 51.9556C206.825 51.9556 206.838 51.9556 206.85 51.9556C206.938 51.9432 207 51.8497 206.987 51.7625C206.969 51.669 206.882 51.6129 206.788 51.6254V51.6191Z" fill="white"/>
<path d="M188.861 48.3362C188.78 48.2864 188.68 48.3113 188.631 48.3923C188.581 48.4671 188.606 48.573 188.687 48.6228C188.712 48.6415 188.743 48.6478 188.774 48.6478C188.83 48.6478 188.886 48.6228 188.917 48.5668C188.967 48.492 188.942 48.3861 188.861 48.3362Z" fill="white"/>
<path d="M193.678 50.5976C193.591 50.5665 193.497 50.6101 193.466 50.7036C193.435 50.7908 193.479 50.8843 193.572 50.9217C193.591 50.9217 193.609 50.9279 193.628 50.9279C193.703 50.9279 193.765 50.8843 193.79 50.8157C193.815 50.7285 193.771 50.6288 193.684 50.6039L193.678 50.5976Z" fill="white"/>
<path d="M201.492 52.0246C201.398 52.0246 201.324 52.0994 201.324 52.1866C201.324 52.2801 201.392 52.3548 201.486 52.3611C201.573 52.3611 201.654 52.2863 201.654 52.1928C201.654 52.1056 201.579 52.0246 201.486 52.0246H201.492Z" fill="white"/>
<path d="M196.227 51.3392C196.14 51.3143 196.046 51.3704 196.028 51.4639C196.003 51.5511 196.065 51.6446 196.152 51.6633C196.165 51.6633 196.177 51.6633 196.19 51.6633C196.264 51.6633 196.333 51.6072 196.352 51.5324C196.376 51.4452 196.32 51.3517 196.227 51.333V51.3392Z" fill="white"/>
<path d="M198.844 51.8129C198.756 51.8004 198.669 51.869 198.657 51.9562C198.65 52.0497 198.713 52.1369 198.806 52.1431C198.806 52.1431 198.819 52.1431 198.825 52.1431C198.912 52.1431 198.981 52.0808 198.993 51.9936C198.999 51.9001 198.937 51.8191 198.844 51.8066V51.8129Z" fill="white"/>
<path d="M204.159 51.9568C204.066 51.9631 203.991 52.0441 204.003 52.1375C204.003 52.2248 204.084 52.2871 204.172 52.2871H204.184C204.277 52.2808 204.346 52.1998 204.34 52.1064C204.334 52.0129 204.253 51.9444 204.159 51.9506V51.9568Z" fill="white"/>
<path d="M214.397 3.38998C214.397 3.38998 214.453 3.40867 214.471 3.40867C214.534 3.40867 214.59 3.37751 214.621 3.32143C214.665 3.2342 214.633 3.1345 214.552 3.09088C214.471 3.04726 214.372 3.07842 214.328 3.15942C214.285 3.24043 214.316 3.34013 214.397 3.38998Z" fill="white"/>
<path d="M209.48 1.3713C209.48 1.3713 209.512 1.37753 209.524 1.37753C209.599 1.37753 209.661 1.32768 209.686 1.25914C209.711 1.1719 209.661 1.07843 209.574 1.04728C209.487 1.02235 209.393 1.0722 209.362 1.16567C209.337 1.25291 209.387 1.34638 209.48 1.3713Z" fill="white"/>
<path d="M211.992 2.25611C211.992 2.25611 212.035 2.26234 212.054 2.26234C212.122 2.26234 212.185 2.22495 212.21 2.15641C212.247 2.06917 212.21 1.9757 212.122 1.93831C212.035 1.90093 211.936 1.94455 211.904 2.03178C211.867 2.11902 211.904 2.21249 211.992 2.24987V2.25611Z" fill="white"/>
<path d="M178.268 36.4405C178.181 36.4779 178.144 36.5776 178.181 36.6648C178.206 36.7209 178.268 36.7645 178.33 36.7645C178.355 36.7645 178.374 36.7645 178.399 36.7521C178.486 36.7147 178.524 36.615 178.486 36.5277C178.449 36.4405 178.349 36.4093 178.268 36.4405Z" fill="white"/>
<path d="M206.888 0.760494H206.919C207 0.760494 207.069 0.704413 207.088 0.623407C207.106 0.529939 207.044 0.442702 206.951 0.424008C206.863 0.405315 206.77 0.467627 206.751 0.561095C206.739 0.648332 206.795 0.7418 206.888 0.760494Z" fill="white"/>
<path d="M198.925 0.5368C198.925 0.5368 198.937 0.5368 198.943 0.5368C199.037 0.530569 199.099 0.443332 199.093 0.349864C199.08 0.262627 198.999 0.194083 198.906 0.206546C198.812 0.212777 198.75 0.300014 198.756 0.393482C198.769 0.480719 198.844 0.543032 198.925 0.543032V0.5368Z" fill="white"/>
<path d="M196.283 1.0034C196.283 1.0034 196.308 1.0034 196.32 1.0034C196.407 0.984706 196.47 0.897469 196.445 0.804001C196.42 0.716764 196.333 0.660683 196.245 0.679377C196.158 0.704301 196.096 0.791539 196.121 0.878776C196.139 0.95355 196.208 1.00963 196.283 1.00963V1.0034Z" fill="white"/>
<path d="M218.896 6.41152C218.945 6.41152 218.995 6.3866 219.026 6.34921C219.083 6.27444 219.076 6.17474 219.008 6.11866C218.933 6.05635 218.827 6.06258 218.771 6.13735C218.709 6.21213 218.715 6.31806 218.79 6.37414C218.821 6.39906 218.864 6.41152 218.896 6.41152Z" fill="white"/>
<path d="M204.252 0.412109C204.252 0.412109 204.258 0.412109 204.265 0.412109C204.352 0.412109 204.427 0.343566 204.433 0.256329C204.439 0.162861 204.37 0.081855 204.283 0.0756237C204.19 0.0693925 204.109 0.131705 204.103 0.225173C204.103 0.318641 204.165 0.399647 204.258 0.405878L204.252 0.412109Z" fill="white"/>
<path d="M201.592 0.336823C201.685 0.336823 201.76 0.255817 201.76 0.162349C201.76 0.0751122 201.679 -0.00589362 201.592 0.0003376C201.498 0.0003376 201.423 0.0751122 201.423 0.16858C201.423 0.262049 201.498 0.336823 201.592 0.336823Z" fill="white"/>
<path d="M225.52 37.6991C225.432 37.6617 225.339 37.6991 225.289 37.7739C225.252 37.8549 225.283 37.9546 225.364 37.9982C225.389 38.0107 225.414 38.0169 225.439 38.0169C225.495 38.0169 225.557 37.9857 225.588 37.9297C225.632 37.8424 225.594 37.749 225.513 37.6991H225.52Z" fill="white"/>
<path d="M226.56 17.2238C226.56 17.2238 226.598 17.2238 226.616 17.2113C226.704 17.1801 226.747 17.0804 226.716 16.9994C226.685 16.9122 226.585 16.8686 226.498 16.8997C226.411 16.9309 226.367 17.0306 226.398 17.1178C226.423 17.1864 226.485 17.23 226.554 17.23L226.56 17.2238Z" fill="white"/>
<path d="M227.906 22.3958C227.906 22.3958 227.925 22.3958 227.931 22.3958C228.018 22.3834 228.081 22.2962 228.068 22.2027C228.056 22.1154 227.968 22.0469 227.875 22.0656C227.788 22.0781 227.725 22.1653 227.738 22.2588C227.75 22.3398 227.825 22.4021 227.906 22.4021V22.3958Z" fill="white"/>
<path d="M228.006 24.9004C228.006 24.9939 228.08 25.0624 228.174 25.0624C228.267 25.0624 228.342 24.9752 228.336 24.888C228.336 24.7945 228.249 24.7197 228.161 24.7259C228.068 24.7259 227.993 24.8132 227.999 24.9004H228.006Z" fill="white"/>
<path d="M224.174 12.432C224.205 12.432 224.236 12.4257 224.261 12.407C224.342 12.3572 224.367 12.2575 224.317 12.1765C224.267 12.1017 224.161 12.0768 224.087 12.1266C224.012 12.1765 223.987 12.2762 224.03 12.3572C224.062 12.407 224.118 12.432 224.174 12.432Z" fill="white"/>
<path d="M225.488 14.762C225.488 14.762 225.538 14.762 225.563 14.7495C225.65 14.7059 225.682 14.6062 225.638 14.519C225.601 14.438 225.501 14.4006 225.414 14.4442C225.326 14.4878 225.295 14.5813 225.339 14.6685C225.37 14.7246 225.426 14.7558 225.488 14.7558V14.762Z" fill="white"/>
<path d="M222.622 10.2441C222.659 10.2441 222.697 10.2378 222.728 10.2067C222.797 10.1506 222.815 10.0447 222.753 9.97612C222.697 9.90134 222.591 9.88888 222.516 9.95119C222.448 10.0073 222.429 10.1132 222.491 10.1817C222.522 10.2254 222.572 10.2441 222.622 10.2441Z" fill="white"/>
<path d="M220.74 8.18196C220.771 8.21312 220.815 8.23181 220.858 8.23181C220.896 8.23181 220.946 8.21312 220.977 8.18196C221.045 8.11965 221.045 8.01372 220.977 7.94517C220.908 7.87663 220.809 7.87663 220.74 7.94517C220.671 8.01372 220.671 8.11965 220.74 8.18196Z" fill="white"/>
<path d="M226.585 35.244C226.498 35.2066 226.398 35.2502 226.367 35.3374C226.336 35.4247 226.373 35.5244 226.466 35.5555C226.485 35.5618 226.504 35.5618 226.523 35.5618C226.591 35.5618 226.66 35.5181 226.678 35.4558C226.716 35.3686 226.672 35.2751 226.585 35.2377V35.244Z" fill="white"/>
<path d="M216.671 4.76782C216.671 4.76782 216.727 4.79897 216.765 4.79897C216.821 4.79897 216.871 4.77405 216.902 4.7242C216.952 4.64942 216.933 4.54349 216.858 4.49364C216.777 4.44379 216.678 4.46249 216.628 4.53726C216.572 4.61204 216.597 4.71797 216.671 4.76782Z" fill="white"/>
<path d="M176.287 28.6821C176.193 28.6884 176.125 28.7756 176.137 28.8628C176.143 28.9501 176.218 29.0124 176.305 29.0124H176.324C176.418 29.0062 176.486 28.9251 176.474 28.8317C176.461 28.7382 176.38 28.6697 176.293 28.6821H176.287Z" fill="white"/>
<path d="M176.337 23.2427C176.243 23.2302 176.156 23.2989 176.15 23.3927C176.143 23.4864 176.206 23.5676 176.3 23.5739C176.3 23.5739 176.306 23.5739 176.312 23.5739C176.4 23.5739 176.475 23.5051 176.481 23.4239C176.487 23.3364 176.425 23.2489 176.331 23.2427H176.337Z" fill="white"/>
<path d="M176.336 26.1771C176.336 26.1771 176.336 26.1397 176.336 26.1273C176.336 26.1086 176.336 26.0961 176.336 26.0774C176.336 25.984 176.262 25.9092 176.168 25.9092C176.075 25.9092 176 25.984 176 26.0774C176 26.1023 176 26.1148 176.006 26.1335C176.006 26.1522 176.006 26.1647 176.006 26.1834C176.006 26.2768 176.081 26.3516 176.174 26.3516C176.268 26.3516 176.343 26.2768 176.343 26.1834L176.336 26.1771Z" fill="white"/>
<path d="M178.443 15.5222C178.356 15.4849 178.262 15.5222 178.219 15.6095C178.181 15.6967 178.219 15.7902 178.306 15.8338C178.324 15.84 178.349 15.8463 178.374 15.8463C178.437 15.8463 178.499 15.8089 178.524 15.7403C178.561 15.6593 178.524 15.5596 178.437 15.5222H178.443Z" fill="white"/>
<path d="M177.34 33.9293C177.252 33.9604 177.202 34.0539 177.227 34.1412C177.252 34.2159 177.315 34.2595 177.389 34.2595C177.408 34.2595 177.427 34.2595 177.445 34.2533C177.533 34.2284 177.583 34.1349 177.551 34.0415C177.52 33.9542 177.433 33.9044 177.34 33.9293Z" fill="white"/>
<path d="M177.471 18.0148C177.384 17.9898 177.29 18.0335 177.259 18.121C177.234 18.2085 177.284 18.3023 177.365 18.3335C177.384 18.3398 177.403 18.3398 177.421 18.3398C177.496 18.3398 177.559 18.296 177.578 18.221C177.603 18.1335 177.553 18.0398 177.465 18.0085L177.471 18.0148Z" fill="white"/>
<path d="M179.502 13.4282C179.502 13.4282 179.558 13.4531 179.583 13.4531C179.639 13.4531 179.701 13.422 179.732 13.3659C179.776 13.2849 179.751 13.1852 179.67 13.1353C179.589 13.0855 179.489 13.1166 179.44 13.1976C179.39 13.2724 179.421 13.3784 179.502 13.4282Z" fill="white"/>
<path d="M176.679 31.331C176.586 31.3559 176.53 31.4431 176.548 31.5304C176.561 31.6114 176.636 31.6674 176.71 31.6674C176.723 31.6674 176.735 31.6674 176.748 31.6674C176.835 31.6487 176.897 31.5615 176.879 31.468C176.86 31.3746 176.773 31.3185 176.679 31.331Z" fill="white"/>
<path d="M176.766 20.5943C176.673 20.5756 176.586 20.6317 176.567 20.7252C176.548 20.8187 176.604 20.9059 176.698 20.9246H176.735C176.81 20.9246 176.885 20.8685 176.903 20.7937C176.922 20.7003 176.866 20.613 176.773 20.5943H176.766Z" fill="white"/>
<path d="M193.709 1.73862C193.709 1.73862 193.746 1.73862 193.765 1.73239C193.852 1.70123 193.902 1.60777 193.871 1.52053C193.84 1.43329 193.74 1.38344 193.659 1.4146C193.572 1.44575 193.522 1.53922 193.553 1.63269C193.578 1.70123 193.641 1.74485 193.709 1.74485V1.73862Z" fill="white"/>
<path d="M188.861 3.99445C188.861 3.99445 188.917 3.99445 188.948 3.96953C189.029 3.91968 189.054 3.81998 189.005 3.73897C188.955 3.65797 188.855 3.63304 188.774 3.68289C188.693 3.72651 188.668 3.83244 188.712 3.91345C188.743 3.96953 188.799 3.99445 188.861 3.99445Z" fill="white"/>
<path d="M186.637 5.48367C186.674 5.48367 186.712 5.47121 186.737 5.44629C186.811 5.39021 186.824 5.29051 186.768 5.21573C186.712 5.14096 186.606 5.12849 186.537 5.17834C186.462 5.23442 186.45 5.34036 186.5 5.41513C186.531 5.45875 186.587 5.48367 186.637 5.48367Z" fill="white"/>
<path d="M227.383 32.69C227.295 32.6651 227.202 32.7149 227.183 32.8084C227.158 32.8956 227.208 32.9891 227.302 33.014C227.314 33.014 227.333 33.0202 227.345 33.0202C227.414 33.0202 227.488 32.9642 227.507 32.8956C227.532 32.8021 227.476 32.7149 227.389 32.69H227.383Z" fill="white"/>
<path d="M181.029 11.198C181.085 11.198 181.135 11.173 181.166 11.1294C181.222 11.0546 181.209 10.9487 181.128 10.8989C181.054 10.8428 180.948 10.8615 180.898 10.9363C180.842 11.011 180.86 11.117 180.935 11.1668C180.966 11.1917 180.998 11.198 181.035 11.198H181.029Z" fill="white"/>
<path d="M191.229 2.74287C191.229 2.74287 191.279 2.74287 191.304 2.72418C191.391 2.68679 191.422 2.58709 191.385 2.49985C191.341 2.41885 191.248 2.38146 191.161 2.41885C191.073 2.45623 191.042 2.55593 191.08 2.64317C191.104 2.70548 191.167 2.74287 191.229 2.74287Z" fill="white"/>
<path d="M184.574 7.1905C184.612 7.1905 184.656 7.17804 184.693 7.15312C184.761 7.0908 184.768 6.98487 184.699 6.9101C184.637 6.84155 184.531 6.83532 184.462 6.90387C184.394 6.96618 184.388 7.07211 184.456 7.14065C184.487 7.17804 184.531 7.19673 184.574 7.19673V7.1905Z" fill="white"/>
<path d="M182.698 9.10433C182.742 9.10433 182.786 9.08563 182.823 9.04825C182.885 8.9797 182.879 8.87377 182.811 8.81146C182.736 8.75538 182.63 8.75538 182.574 8.83015C182.512 8.8987 182.518 9.00463 182.586 9.06694C182.617 9.09186 182.661 9.10433 182.698 9.10433Z" fill="white"/>
<path d="M227.326 19.4425C227.239 19.4674 227.183 19.5546 227.208 19.6419C227.233 19.7166 227.295 19.7665 227.37 19.7665C227.383 19.7665 227.401 19.7665 227.414 19.7665C227.501 19.7416 227.557 19.6481 227.532 19.5609C227.507 19.4736 227.414 19.4175 227.326 19.4425Z" fill="white"/>
<path d="M384.745 72.314L345.539 25.3822C345.338 25.138 345.041 25 344.722 25H254.506V27.1236H344.235L382.879 73.3864V214.436L355.253 245.898H3.40232L30.0632 215.541C30.2328 215.35 30.3283 215.095 30.3283 214.84V111.229C30.3283 110.985 30.2435 110.741 30.0844 110.56L4.18714 79.0033V27.1236L154.5 27.1236V25L3.12665 25C2.54338 25 2.06616 25.4778 2.06616 26.0618V79.3644C2.06616 79.6086 2.15097 79.8528 2.31005 80.0333L28.2073 111.59V214.415L0.263302 246.237C-0.0124261 246.545 -0.076092 246.991 0.093587 247.374C0.263266 247.756 0.64508 248 1.05867 248H355.73C356.038 248 356.324 247.873 356.526 247.639L384.735 215.519C384.905 215.328 385 215.073 385 214.819V72.9935C385 72.7493 384.915 72.5051 384.756 72.314H384.745Z" fill="white"/>
</svg>
