<svg width="389" height="223" viewBox="0 0 389 223" fill="none" xmlns="http://www.w3.org/2000/svg">
<path d="M388.756 85.5308L362.497 53.977V1.0617C362.497 0.477766 362.019 0 361.435 0H260.761V2.12341H360.374V54.3592C360.374 54.6034 360.459 54.8476 360.618 55.0387L386.877 86.5925V189.408L359.227 220.866H3.25206L46.791 165.689H64.8669C65.4506 165.689 65.9283 165.212 65.9283 164.628V53.754C65.9283 53.1701 65.4506 52.6923 64.8669 52.6923H47.343V2.12341H104.362L116.664 14.694C116.865 14.8957 117.141 15.0125 117.417 15.0125H137.319C137.626 15.0125 137.934 14.8745 138.136 14.6303L148.654 2.12341H171.018V0H148.156C147.848 0 147.54 0.138021 147.338 0.382213L136.82 12.8891H117.863L105.561 0.318511C105.36 0.116787 105.084 0 104.808 0H46.2816C45.6978 0 45.2202 0.477766 45.2202 1.0617V53.754C45.2202 54.3379 45.6978 54.8157 46.2816 54.8157H63.8054V163.577H46.2816C45.9525 163.577 45.6447 163.725 45.4431 163.98L0.227033 221.28C-0.0277057 221.599 -0.0701789 222.034 0.110261 222.405C0.2907 222.777 0.662219 223 1.06555 223H359.705C360.013 223 360.3 222.873 360.501 222.639L388.735 190.523C388.904 190.331 389 190.077 389 189.822V86.2209C389 85.9767 388.915 85.7325 388.756 85.5414V85.5308Z" fill="white"/>
</svg>
